<svg width="73" height="89" fill="none" xmlns="http://www.w3.org/2000/svg"><path d="M38.202 88.392C27.985 85.53 18.8 75.832 10.256 58.885.263 39.067-2.598 21.695 2.425 11.32c2.064-4.265 6.98-6.868 11.65-6.17 9.532 1.427 12.795 8.75 12.472 27.983-.076 4.503-.012 8.044.142 7.87.154-.173.526-1.125.828-2.114.3-.99 1.907-4.469 3.57-7.731 3.729-7.319 3.987-8.556 2.47-11.85-1.165-2.53-1.497-5.913-.704-7.178.298-.476 1.2-.675 3.055-.675h2.632l2.972-3.243c3.044-3.322 7.746-6.795 10.44-7.71 2.351-.8 6.678-.618 8.722.365l1.78.857-1.557-.306C54.65.19 49.397 2.01 44.422 7.13c-6.429 6.613-10.56 17.13-8.38 21.331.506.976.503.977-.448.123-.527-.472-1.038-.776-1.136-.674-.99 1.022-5.423 12.738-6.74 17.81-1.692 6.518-1.992 15.191-.703 20.342 1.2 4.8 3.506 9.521 6.126 12.549 1.129 1.303 2.132 2.288 2.23 2.19.098-.1-.336-2.083-.964-4.407-1.397-5.17-1.86-11.345-1.12-14.936l.54-2.614 1.338 2.165c2.729 4.411 9.307 10.155 12.33 10.766 2.687.543 2.75-2.94.177-9.726-1.704-4.494-2.306-7.08-2.618-11.243-.368-4.898.41-8.151 3.384-14.168 2.516-5.089 2.673-6.34 1.34-10.64-.487-1.568-.887-2.91-.89-2.984-.004-.073.936.594 2.088 1.483 3.566 2.752 7.553 4.446 10.525 4.473 2.419.022 2.695-.084 3.838-1.465.677-.82 1.651-2.843 2.166-4.497L68.441 20l-.152 3.248-.151 3.248 1.236-.89c.68-.49 1.774-1.95 2.431-3.248L73 20l-.213 3.003c-.167 2.364-.666 3.984-2.343 7.61-2.515 5.437-2.641 7.014-.893 11.17 1.706 4.057 2.89 10.49 3.192 17.344.23 5.22.134 6.416-.9 11.167-1.351 6.219-1.52 10.679-.439 11.586 2.062 1.729 1.282 4.36-1.642 5.541-2.376.961-6.766 1-9.255.082-2.725-1.005-4.63-.897-7.175.407-2.005 1.026-2.67 1.12-7.662 1.084-3.006-.022-6.367-.293-7.468-.602zM64.73 35.77c.135-.355.514-.542.843-.414.775.3 1.765-1.26 2.883-4.543 1.266-3.719 1.176-4.16-.55-2.689-1.857 1.582-3.914 2.446-5.828 2.446h-1.517l.227 2.136c.124 1.175.407 2.49.628 2.923.494.966 2.961 1.071 3.314.141zm-1.565-20.778c-2.37-1.194-4.176-3.349-3.75-4.473.642-1.69 8.268-3.783 10.566-2.9 1.402.539 1.476 1.721.274 4.397-1.032 2.297-2.784 4.162-3.91 4.162-.453 0-1.884-.534-3.18-1.186zm-14.66-4.606c-.645-2.176-.65-2.1.186-2.945 1.002-1.013 2.273-.877 4.583.491l2.023 1.198-1.698.594c-.934.327-2.346 1-3.139 1.494l-1.441.9-.514-1.732z" fill="#fff"/></svg>