<svg width="84" height="91" fill="none" xmlns="http://www.w3.org/2000/svg"><path d="M55.436 31.692c7.842.175 14.045 3.49 18.64 9.79 2.238 3.066 3.51 6.535 4.075 10.287.198 1.314.208 2.62.146 3.923-.036.744.03 1.5-.113 2.236-.05.252.07.395.234.534 2.63 2.202 4.008 5.099 4.693 8.387.079.379-.015.62-.32.859-2.53 1.984-5.35 3.142-8.614 3.037-.274-.009-.352.175-.469.342-1.47 2.109-3.046 4.13-4.974 5.85-.906.81-1.898 1.514-2.86 2.255-.156.122-.276.226-.279.459-.045 3.446-1.358 6.442-3.304 9.21-.461.657-.987 1.263-1.506 1.874-.188.22-.385.305-.668.248-4.016-.807-7.486-2.54-9.999-5.884-.183-.244-.381-.293-.653-.286-2.962.076-5.901-.112-8.806-.737a39.355 39.355 0 01-3.664-.995c-.347-.11-.59-.05-.879.156-3.187 2.276-6.75 3.575-10.634 4.018a30.792 30.792 0 01-3.124.172c-.39.005-.563-.135-.695-.486-.926-2.46-1.334-5-1.28-7.624.039-1.872.358-3.69.936-5.464.101-.311.082-.523-.15-.768a34.994 34.994 0 01-5.164-7.025c-.08-.145-.164-.242-.356-.27-5.774-.83-10.533-3.582-14.575-7.686l-.033-.035c-1.332-1.49-1.262-.803-.484-2.625 2.043-4.782 5.218-8.618 9.811-11.169.72-.4 1.063-.833 1.151-1.648.32-2.936 1.034-5.786 2.062-8.556.08-.214.029-.347-.093-.519-2.477-3.484-3.835-7.388-4.377-11.603-.22-1.724-.212-3.451-.184-5.182.007-.405.164-.59.516-.739a24.85 24.85 0 018.013-1.893c3.12-.21 6.152.188 9.076 1.287.503.19.813.112 1.236-.163 2.851-1.845 5.869-3.353 9.136-4.329.21-.062.366-.115.432-.368.612-2.322 1.838-4.32 3.336-6.163 1.356-1.667 2.969-3.057 4.746-4.263.271-.184.467-.173.73-.017 3.631 2.147 6.329 5.085 7.735 9.11.105.3.257.436.56.479 2.922.412 5.73 1.236 8.443 2.382.222.094.382.064.575-.063 2.605-1.714 5.501-2.292 8.575-2.188.253.008.371.128.474.324 1.46 2.78 2.072 5.704 1.457 8.82-.066.333-.005.535.215.76 2.118 2.165 3.961 4.537 5.453 7.18 2.198 3.896 3.614 8.042 4.11 12.499.144 1.292.133 2.591.248 3.883.049.543-.168.862-.558.92-.372.056-.718-.212-.852-.69-.516-1.834-1.061-3.66-1.853-5.398-1.567-3.432-3.576-6.57-6.18-9.332-3.509-3.725-7.653-6.45-12.483-8.137-2.498-.872-5.083-1.319-7.718-1.52a32.966 32.966 0 00-4.044-.045c-1.436.066-2.864.266-4.282.542-3.539.69-6.914 1.827-9.99 3.717-2.39 1.469-4.343 3.437-6.003 5.694-3.214 4.366-5.052 9.283-5.843 14.61-.492 3.307-.519 6.614.295 9.878 1.197 4.794 3.606 8.9 7.148 12.357 4.04 3.943 8.917 6.123 14.46 6.95 6.64.99 12.306-.948 17.011-5.675 2.798-2.812 4.467-6.23 5.066-10.148.653-4.272-.016-8.29-2.674-11.793-2.878-3.793-6.74-5.916-11.538-5.986-5.963-.085-10.552 3.74-11.807 9.564-1.266 5.87 2.82 10.625 7.507 11.612 2.01.423 3.914.212 5.767-.633.16-.072.323-.148.493-.182.428-.084.903.14 1.05.5.172.418.09.802-.268 1.079-1.47 1.135-3.134 1.818-4.99 1.932-1.715.105-3.43.083-5.09-.495-5.233-1.82-8.488-5.425-9.392-10.87-.88-5.284.662-9.984 4.205-14.004 3.154-3.58 7.169-5.524 11.888-6.05.697-.077 1.411-.01 2.118-.01z" fill="#fff"/></svg>