<svg xmlns="http://www.w3.org/2000/svg" viewBox="-173 -143 92.248 93.678"><path fill="none" d="M-204.442-168h900v900h-900z"/><path d="M-80.903-86.474l-8.927-38.87c-.507-2.128-2.435-4.255-4.562-4.872l-40.8-12.586c-.507-.198-1.113-.198-1.73-.198-1.73 0-3.549.705-4.772 1.73l-29.228 27.2c-1.62 1.422-2.435 4.265-1.928 6.293l9.544 41.615c.507 2.127 2.435 4.265 4.562 4.871l38.155 11.77c.507.199 1.113.199 1.73.199 1.73 0 3.549-.706 4.772-1.73l31.255-29.019c1.632-1.52 2.436-4.265 1.93-6.403zm-50.024-47.092l28.004 8.63c1.113.308 1.113.815 0 1.112l-14.713 3.35c-1.113.31-2.634-.198-3.45-1.013l-10.249-11.065c-.914-.904-.716-1.312.408-1.014zm17.446 50.244c.309 1.113-.407 1.73-1.52 1.422l-30.242-9.335c-1.113-.308-1.322-1.223-.507-2.028l23.144-21.523c.816-.816 1.73-.507 2.028.606zm-49.825-27.409l24.565-22.835c.816-.816 2.127-.705 2.943.1l12.277 13.301c.816.816.706 2.127-.099 2.943l-24.566 22.835c-.815.816-2.127.706-2.942-.099l-12.277-13.291c-.816-.915-.706-2.237.099-2.954zm5.995 36.237l-6.491-28.522c-.309-1.113.198-1.323.915-.507l10.249 11.065c.816.815 1.113 2.436.816 3.549l-4.475 14.415c-.309 1.113-.815 1.113-1.014 0zm35.917 16.642l-32.07-9.842c-1.114-.309-1.73-1.52-1.422-2.634l5.378-17.259c.309-1.113 1.52-1.73 2.634-1.422l32.07 9.842c1.114.309 1.731 1.521 1.423 2.634l-5.379 17.259c-.396 1.124-1.51 1.73-2.634 1.422zm28.412-23.343l-21.402 19.893c-.816.816-1.213.507-.915-.606l4.463-14.415c.309-1.114 1.521-2.238 2.634-2.436l14.713-3.35c1.124-.298 1.323.209.507.914zm2.337-4.254l-17.656 4.056c-1.113.309-2.237-.408-2.535-1.52l-7.505-32.678c-.308-1.113.408-2.237 1.521-2.535l17.655-4.055c1.114-.31 2.238.407 2.535 1.52l7.506 32.677c.308 1.213-.397 2.326-1.521 2.535z" fill="#fff"/></svg>