<svg width="90" height="94" fill="none" xmlns="http://www.w3.org/2000/svg"><g clip-path="url(#clip0)" fill="#fff"><path d="M53.042 94c-.81-.133-1.637-.204-2.428-.412-3.107-.813-5.19-2.85-6.478-5.759-1.283-2.898-2.047-5.94-2.233-9.116-.157-2.671-.274-5.345-.41-8.018-.008-.188-.024-.377-.037-.566-5.596 1.766-10.93 1.772-15.691-2.044-1.121.535-2.233 1.256-3.45 1.607-2.964.856-5.538-.12-7.785-2.111-2.347-2.079-3.902-4.744-5.254-7.532-2.395-4.937-4.078-10.141-5.512-15.431-1.38-5.087-2.58-10.218-3.33-15.44C-.36 23.653-.163 18.183 1.9 12.926c2.26-5.758 6.474-9.313 12.358-10.86 3.606-.948 7.268-.973 10.947-.534 3.38.404 6.674 1.184 9.911 2.233.22.071.535.06.73-.05 4.177-2.367 8.69-2.97 13.379-2.621 1.437.107 2.866.327 4.301.473.27.028.562-.012.825-.087C58.227.393 62.173-.13 66.193.03c6.376.252 12.196 2.113 17.166 6.298 1.763 1.485 3.397 3.113 4.6 5.115 1.027 1.71 1.395 3.627 1.542 5.592.341 4.582-.431 9.043-1.525 13.457-2.004 8.091-5.187 15.697-9.313 22.906-.076.131-.15.263-.221.397-.016.03-.013.071-.036.224 1.096-.137 2.16-.262 3.224-.403 1.206-.16 2.407-.447 3.614-.472 2.328-.05 4.308 1.502 4.67 3.574.348 1.992-.352 3.668-1.728 5.06-2.728 2.764-6.014 4.482-9.798 5.212-2.254.434-4.524.68-6.823.481-.07-.006-.143.015-.295.032-.071 1.289-.144 2.571-.214 3.855-.182 3.32-.516 6.62-1.358 9.847-.81 3.105-2.05 5.982-4.357 8.282-1.857 1.849-4.112 2.976-6.609 3.582-1.65.4-3.34.63-5.014.936-.226-.004-.45-.004-.676-.004zm21.05-38.343c.109-.174.205-.334.306-.493 5.245-8.339 9.129-17.271 11.332-26.918.867-3.797 1.466-7.64 1.067-11.566-.176-1.735-.553-3.41-1.66-4.82-3.075-3.917-6.958-6.663-11.694-8.096-6.492-1.964-12.956-1.54-19.384.398-.303.092-.65.09-.97.054-1.972-.221-3.934-.59-5.91-.674-3.945-.168-7.665.697-11.03 2.89-.164.107-.458.095-.663.037-2.018-.57-4.01-1.258-6.049-1.727-4.305-.99-8.66-1.436-13.053-.635C10.47 5.183 6.206 8.375 4.08 14.177c-1.705 4.65-1.87 9.464-1.17 14.314.853 5.918 2.226 11.727 3.89 17.463 1.364 4.697 2.943 9.318 5.172 13.68 1.072 2.098 2.302 4.096 4.046 5.704 1.507 1.388 3.222 2.235 5.33 1.765 1.528-.34 2.704-1.275 3.716-2.43a1637.27 1637.27 0 007.14-8.204c.252-.292.444-.303.806-.178 1.181.409 2.383.757 3.587 1.096.346.096.722.085 1.188.135-.49.627-.92 1.149-1.325 1.692a4.23 4.23 0 01-2.38 1.617c-.941.247-1.889.474-2.835.702-1.15.279-2.305.544-3.256 1.318-.988.803-1.208 2.12-.364 3.06.55.613 1.277 1.11 2.008 1.496 1.26.666 2.667.86 4.071 1 3.4.34 6.522-.355 9.243-2.544.155-.125.316-.24.532-.404.02.225.04.37.045.512.134 4.439.219 8.88.42 13.315.106 2.35.463 4.661 1.555 6.818 1.898 3.748 5.008 5.65 9.113 5.363a18.014 18.014 0 006.947-1.923c2.143-1.088 3.71-2.76 4.604-5.017.396-.997.779-2.035.936-3.09.687-4.613 1.293-9.237 1.92-13.859.145-1.063.255-2.13.386-3.23 2.411.584 4.775.46 7.148.145 3.48-.46 6.574-1.79 9.177-4.183a6.387 6.387 0 001.41-1.882c.61-1.266-.06-2.55-1.434-2.706-.89-.1-1.827.027-2.72.18-2.167.367-4.33.727-6.536.499-.823-.082-1.63-.236-2.358-.744z"/><path d="M28.876 27.123c.564-5.339 1.72-10.357 4.853-14.687 2.466-3.41 5.796-5.502 9.945-6.008 8.03-.978 14.98 1.426 20.77 7.163 2.904 2.878 5.08 6.264 6.617 10.072.091.225.159.459.236.683-1.135 0-2.237-.045-3.334.01-1.82.093-3.563.49-5.06 1.626-1.5 1.138-2.258 2.697-2.467 4.55-.347 3.062.57 5.888 1.629 8.674 1.208 3.176 2.881 6.123 4.46 9.118 1.26 2.393 2.356 4.879 4.328 6.91-.277.128-.451.22-.633.29-1.926.729-2.912 2.202-3.136 4.204-.2 1.786-.273 3.587-.462 5.376a315.504 315.504 0 01-.868 7.275 369.402 369.402 0 01-1.05 7.536c-.22 1.463-.587 2.892-1.273 4.218-1.12 2.166-3.03 3.263-5.239 3.885-1.255.353-2.548.652-3.842.762-2.385.203-4.374-.633-5.774-2.694-1.202-1.769-1.721-3.755-1.917-5.865-.56-6.021-.477-12.058-.432-18.093.01-1.16.076-2.298-.365-3.411-.789-1.993-2.662-3.543-4.967-3.372-.054.004-.11-.013-.239-.029.045-.203.065-.402.132-.583.737-1.944 1.405-3.92 2.24-5.819 1.563-3.556 2.23-7.263 2.032-11.13-.134-2.593-.48-5.168-1.107-7.69-.936-3.766-3.717-5.445-7.284-5.319-2.543.09-4.877.912-7.134 2.023-.184.089-.365.18-.66.325z"/><path d="M33.374 8.63c-1.393 1.483-2.576 3.066-3.503 4.834-1.722 3.28-2.8 6.776-3.298 10.443a58.6 58.6 0 00-.498 5.6c-.058 1.473.11 2.954.147 4.431.072 2.923-.1 5.828-.408 8.742-.483 4.575.941 8.52 4.275 11.709.055.051.103.108.202.214-.53.585-1.068 1.158-1.582 1.751-1.803 2.086-3.58 4.193-5.406 6.259a9.804 9.804 0 01-1.724 1.525c-.844.59-1.76.543-2.655.04-1.11-.622-1.933-1.556-2.658-2.578-1.963-2.764-3.31-5.85-4.488-9.015-2.313-6.214-4-12.61-5.288-19.114a94.961 94.961 0 01-1.182-7.335c-.172-1.46-.11-2.959-.043-4.436.1-2.221.476-4.405 1.242-6.5 1.686-4.607 4.982-7.31 9.68-8.328 2.796-.606 5.612-.567 8.439-.248 2.91.33 5.74 1.012 8.53 1.89.052.017.1.052.218.116zm39.195 44.391c-.346-.222-.369-.424-.193-.74 1.63-2.926 2.086-6.085 1.762-9.391-.191-1.96-.422-3.916-.57-5.88-.181-2.42.258-4.796.594-7.178.09-.636.09-1.286.192-1.92.394-2.409-.392-4.57-1.38-6.673C69.821 14.533 65.17 9.28 58.48 6.028c-.065-.03-.125-.067-.342-.185 1.1-.165 2.044-.388 2.996-.436 1.924-.096 3.86-.23 5.776-.113 6.547.4 12.042 2.995 16.17 8.273.814 1.042.992 2.315 1.097 3.585.336 4.079-.396 8.046-1.376 11.965-2.101 8.405-5.517 16.25-10.025 23.613-.057.096-.13.183-.207.291z"/><path d="M42.332 39.245c.13 3.065-.715 6.072-1.985 9.012-.86 1.99-1.552 4.058-2.282 6.103-.125.35-.28.437-.602.416-2.418-.159-4.437-1.185-6.076-2.954-2.313-2.498-3.268-5.484-2.86-8.88.483-4.024.602-8.051.274-12.093-.014-.183.103-.46.247-.56a15.885 15.885 0 016.665-2.69c1.031-.165 2.052-.16 3.056.156 1.563.492 2.285 1.707 2.604 3.213.57 2.671 1.013 5.36.959 8.277zM37.46 28.743c-.596.15-1.065.215-1.49.389-.538.222-.722.683-.494 1.21.419.967 1.163 1.584 2.192 1.76.9.156 1.659-.216 2.26-.88.599-.664.51-1.38-.297-1.763-.712-.337-1.505-.503-2.171-.716zm32.987 21.225c-.04-.039-.092-.068-.115-.114-1.764-3.51-3.573-6.998-5.272-10.54-.957-1.995-1.652-4.112-1.896-6.33-.1-.91-.085-1.87.09-2.764.347-1.771 1.67-2.555 3.289-2.922 1.555-.354 3.125-.275 4.695-.128.334.03.485.188.434.561-.251 1.874-.567 3.745-.699 5.63a33.509 33.509 0 00.004 4.988c.2 2.548.624 5.076.493 7.646-.064 1.238-.535 3.178-1.023 3.973zm-3-21.875c-.614.21-1.379.385-2.064.727-.64.32-.655.864-.169 1.4 1.212 1.336 3.4.907 4.068-.786.184-.464.054-.81-.362-.98-.404-.164-.855-.215-1.472-.361zM30.225 64.564c1.14-.276 2.274-.58 3.422-.82 2.239-.472 4.083-1.53 5.389-3.486.375-.562.843-1.067 1.301-1.567.703-.767 1.365-.799 2.167-.15 1.13.915 1.314 2.417.422 3.55-2.27 2.885-5.261 4.015-8.834 3.644-.906-.094-1.805-.294-2.696-.499-.408-.093-.787-.315-1.18-.479l.009-.193zM83.67 58.6c-.198.163-.392.33-.596.484-2.35 1.774-5.027 2.625-7.92 2.878-1.552.136-3.1.224-4.637-.126-.813-.185-.832-.211-.799-1.064.015-.377.047-.758.13-1.124.236-1.047 1.404-1.94 2.448-1.89.103.004.213.066.302.127 1.387.962 2.977 1.195 4.594 1.269 2.106.097 4.18-.226 6.242-.612.063-.011.129-.018.193-.027l.044.086z"/></g><defs><clipPath id="clip0"><path fill="#fff" d="M0 0h90v94H0z"/></clipPath></defs></svg>