<svg width="90" height="89" fill="none" xmlns="http://www.w3.org/2000/svg"><path d="M44.676 0C21.828 0 23.255 9.85 23.255 9.85l.025 10.203h21.803v3.064H14.62S0 21.468 0 44.385 12.76 66.49 12.76 66.49h7.617V55.855S19.965 43.17 32.934 43.17h21.624s12.15.195 12.15-11.673V11.875S68.552 0 44.676 0zM32.653 6.862c2.17 0 3.923 1.742 3.923 3.899 0 2.156-1.753 3.899-3.923 3.899-2.169 0-3.922-1.743-3.922-3.9 0-2.156 1.753-3.898 3.922-3.898z" fill="#fff"/><path d="M45.324 89c22.848 0 21.421-9.85 21.421-9.85l-.025-10.203H44.917v-3.064H75.38S90 67.531 90 44.615C90 21.698 77.24 22.51 77.24 22.51h-7.617v10.634s.411 12.685-12.557 12.685H35.442s-12.15-.195-12.15 11.672v19.623S21.448 89 45.324 89zm12.023-6.862c-2.17 0-3.923-1.743-3.923-3.899 0-2.156 1.753-3.9 3.923-3.9 2.169 0 3.922 1.744 3.922 3.9 0 2.156-1.753 3.9-3.922 3.9z" fill="#fff"/></svg>