<svg width="102" height="100" fill="none" xmlns="http://www.w3.org/2000/svg"><path d="M48.209 67.562h5.582V52.437h14.04v-5.378H53.79V31.934h-5.58v15.125H34.34v5.378h13.87v15.125zM22.328 89.409h4.737V75.965h12.517v-4.202H27.065V58.151h-4.737v13.612H9.811v4.202h12.517v13.444zm52.607-48.568h4.737V27.397h12.686v-4.034H79.672V9.751h-4.737v13.612H62.418v4.034h12.517V40.84zm-25.88 59.156h4.06v-9.58h8.626v-3.529h-8.627V77.31h-4.06v9.58h-8.457v3.528h8.458v9.58zM22.497 40.841h4.398V27.228h12.687v-3.865H26.895V9.751h-4.398v13.612H9.811v3.866h12.686V40.84zm66.816 20.167h4.06v-9.411H102v-3.698h-8.627v-9.41h-4.06v9.41h-8.457v3.698h8.457v9.41z" fill="#fff"/><path fill-rule="evenodd" clip-rule="evenodd" d="M74.935 89.409h4.737V75.965h12.686v-4.202H79.672V58.151h-4.737v13.612H62.418v4.202h12.517v13.444z" fill="#fff"/><path d="M61.065 12.105V9.248h-8.458V.005h-3.045v9.243h-8.457v2.857h8.457v9.243h3.045v-9.243h8.458zM8.458 60.337h3.044v-9.243h8.458v-2.857h-8.458v-9.075H8.458v9.075H0v3.025l8.458-.168v9.243z" fill="#fff"/></svg>