<svg viewBox="0 0 512 512" height="48" width="48" focusable="false" role="img" xmlns="http://www.w3.org/2000/svg" class="StyledIconBase-ea9ulj-0 duvCfz"><title>Speedometer icon</title><path fill="#fff" d="M326.1 231.9l-47.5 75.5a31 31 0 01-7 7 30.11 30.11 0 01-35-49l75.5-47.5a10.23 10.23 0 0111.7 0 10.06 10.06 0 012.3 14z"></path><path fill="none" stroke="#fff" stroke-linecap="round" stroke-linejoin="round" stroke-width="32" d="M256 64C132.3 64 32 164.2 32 287.9a223.18 223.18 0 0056.3 148.5c1.1 1.2 2.1 2.4 3.2 3.5a25.19 25.19 0 0037.1-.1 173.13 173.13 0 01254.8 0 25.19 25.19 0 0037.1.1l3.2-3.5A223.18 223.18 0 00480 287.9C480 164.2 379.7 64 256 64z"></path><line x1="256" x2="256" y1="128" y2="160" fill="none" stroke="#fff" stroke-linecap="round" stroke-miterlimit="10" stroke-width="32"></line><line x1="416" x2="384" y1="288" y2="288" fill="none" stroke="#fff" stroke-linecap="round" stroke-miterlimit="10" stroke-width="32"></line><line x1="128" x2="96" y1="288" y2="288" fill="none" stroke="#fff" stroke-linecap="round" stroke-miterlimit="10" stroke-width="32"></line><line x1="165.49" x2="142.86" y1="197.49" y2="174.86" fill="none" stroke="#fff" stroke-linecap="round" stroke-miterlimit="10" stroke-width="32"></line><line x1="346.51" x2="369.14" y1="197.49" y2="174.86" fill="none" stroke="#fff" stroke-linecap="round" stroke-miterlimit="10" stroke-width="32"></line></svg>
