<svg xmlns="http://www.w3.org/2000/svg" width="479" height="81">
    <defs>
        <style type="text/css">
            @namespace "http://www.w3.org/2000/svg";
                .line                 {fill: none; stroke: #636273;}
                .bold-line            {stroke: #636273; shape-rendering: crispEdges; stroke-width: 2; }
                .thin-line            {stroke: #636273; shape-rendering: crispEdges}
                .filled               {fill: #636273; stroke: none;}
                text.terminal         {font-family: -apple-system, BlinkMacSystemFont, "Segoe UI", Roboto, Ubuntu, Cantarell, Helvetica, sans-serif;
                font-size: 12px;
                fill: #ffffff;
                font-weight: bold;
                }
                text.nonterminal      {font-family: -apple-system, BlinkMacSystemFont, "Segoe UI", Roboto, Ubuntu, Cantarell, Helvetica, sans-serif;
                font-size: 12px;
                fill: #e289a4;
                font-weight: normal;
                }
                text.regexp           {font-family: -apple-system, BlinkMacSystemFont, "Segoe UI", Roboto, Ubuntu, Cantarell, Helvetica, sans-serif;
                font-size: 12px;
                fill: #00141F;
                font-weight: normal;
                }
                rect, circle, polygon {fill: none; stroke: none;}
                rect.terminal         {fill: none; stroke: #be2f5b;}
                rect.nonterminal      {fill: rgba(255,255,255,0.1); stroke: none;}
                rect.text             {fill: none; stroke: none;}
                polygon.regexp        {fill: #C7ECFF; stroke: #038cbc;}
        </style>
    </defs>
    <polygon points="9 61 1 57 1 65"/>
         <polygon points="17 61 9 57 9 65"/>
         <rect x="31" y="47" width="48" height="32" rx="10"/>
         <rect x="29" y="45" width="48" height="32" class="terminal" rx="10"/>
         <text class="terminal" x="39" y="65">ADD</text>
         <rect x="99" y="47" width="78" height="32" rx="10"/>
         <rect x="97" y="45" width="78" height="32" class="terminal" rx="10"/>
         <text class="terminal" x="107" y="65">COLUMN</text><a xmlns:xlink="http://www.w3.org/1999/xlink" xlink:href="#columnName" xlink:title="columnName">
            <rect x="217" y="47" width="102" height="32"/>
            <rect x="215" y="45" width="102" height="32" class="nonterminal"/>
            <text class="nonterminal" x="225" y="65">columnName</text></a><a xmlns:xlink="http://www.w3.org/1999/xlink" xlink:href="#typeDef" xlink:title="typeDef">
            <rect x="339" y="47" width="70" height="32"/>
            <rect x="337" y="45" width="70" height="32" class="nonterminal"/>
            <text class="nonterminal" x="347" y="65">typeDef</text></a><rect x="217" y="3" width="24" height="32" rx="10"/>
         <rect x="215" y="1" width="24" height="32" class="terminal" rx="10"/>
         <text class="terminal" x="225" y="21">,</text>
         <svg:path xmlns:svg="http://www.w3.org/2000/svg" class="line" d="m17 61 h2 m0 0 h10 m48 0 h10 m0 0 h10 m78 0 h10 m20 0 h10 m102 0 h10 m0 0 h10 m70 0 h10 m-232 0 l20 0 m-1 0 q-9 0 -9 -10 l0 -24 q0 -10 10 -10 m212 44 l20 0 m-20 0 q10 0 10 -10 l0 -24 q0 -10 -10 -10 m-212 0 h10 m24 0 h10 m0 0 h168 m23 44 h-3"/>
         <polygon points="447 61 455 57 455 65"/>
         <polygon points="447 61 439 57 439 65"/></svg>
