<svg xmlns="http://www.w3.org/2000/svg" width="605" height="80">
    <defs>
        <style type="text/css">
            @namespace "http://www.w3.org/2000/svg";
                .line                 {fill: none; stroke: #636273;}
                .bold-line            {stroke: #636273; shape-rendering: crispEdges; stroke-width: 2; }
                .thin-line            {stroke: #636273; shape-rendering: crispEdges}
                .filled               {fill: #636273; stroke: none;}
                text.terminal         {font-family: -apple-system, BlinkMacSystemFont, "Segoe UI", Roboto, Ubuntu, Cantarell, Helvetica, sans-serif;
                font-size: 12px;
                fill: #ffffff;
                font-weight: bold;
                }
                text.nonterminal      {font-family: -apple-system, BlinkMacSystemFont, "Segoe UI", Roboto, Ubuntu, Cantarell, Helvetica, sans-serif;
                font-size: 12px;
                fill: #e289a4;
                font-weight: normal;
                }
                text.regexp           {font-family: -apple-system, BlinkMacSystemFont, "Segoe UI", Roboto, Ubuntu, Cantarell, Helvetica, sans-serif;
                font-size: 12px;
                fill: #00141F;
                font-weight: normal;
                }
                rect, circle, polygon {fill: none; stroke: none;}
                rect.terminal         {fill: none; stroke: #be2f5b;}
                rect.nonterminal      {fill: rgba(255,255,255,0.1); stroke: none;}
                rect.text             {fill: none; stroke: none;}
                polygon.regexp        {fill: #C7ECFF; stroke: #038cbc;}
        </style>
    </defs>
    <polygon points="9 17 1 13 1 21"/>
         <polygon points="17 17 9 13 9 21"/>
         <rect x="31" y="3" width="44" height="32" rx="10"/>
         <rect x="29" y="1" width="44" height="32" class="terminal" rx="10"/>
         <text class="terminal" x="39" y="21">SET</text>
         <rect x="95" y="3" width="68" height="32" rx="10"/>
         <rect x="93" y="1" width="68" height="32" class="terminal" rx="10"/>
         <text class="terminal" x="103" y="21">PARAM</text>
         <rect x="203" y="3" width="160" height="32" rx="10"/>
         <rect x="201" y="1" width="160" height="32" class="terminal" rx="10"/>
         <text class="terminal" x="211" y="21">o3CommitHysteresis</text>
         <rect x="203" y="47" width="190" height="32" rx="10"/>
         <rect x="201" y="45" width="190" height="32" class="terminal" rx="10"/>
         <text class="terminal" x="211" y="65">o3MaxUncommittedRows</text><a xmlns:xlink="http://www.w3.org/1999/xlink" xlink:href="#value" xlink:title="value">
            <rect x="433" y="3" width="54" height="32"/>
            <rect x="431" y="1" width="54" height="32" class="nonterminal"/>
            <text class="nonterminal" x="441" y="21">value</text></a><svg:path xmlns:svg="http://www.w3.org/2000/svg" class="line" d="m17 17 h2 m0 0 h10 m44 0 h10 m0 0 h10 m68 0 h10 m20 0 h10 m160 0 h10 m0 0 h30 m-230 0 h20 m210 0 h20 m-250 0 q10 0 10 10 m230 0 q0 -10 10 -10 m-240 10 v24 m230 0 v-24 m-230 24 q0 10 10 10 m210 0 q10 0 10 -10 m-220 10 h10 m190 0 h10 m20 -44 h10 m54 0 h10 m3 0 h-3"/>
         <polygon points="505 17 513 13 513 21"/>
         <polygon points="505 17 497 13 497 21"/></svg>
