<svg xmlns="http://www.w3.org/2000/svg" width="461" height="240">
    <defs>
        <style type="text/css">
            @namespace "http://www.w3.org/2000/svg";
                .line                 {fill: none; stroke: #636273;}
                .bold-line            {stroke: #636273; shape-rendering: crispEdges; stroke-width: 2; }
                .thin-line            {stroke: #636273; shape-rendering: crispEdges}
                .filled               {fill: #636273; stroke: none;}
                text.terminal         {font-family: -apple-system, BlinkMacSystemFont, "Segoe UI", Roboto, Ubuntu, Cantarell, Helvetica, sans-serif;
                font-size: 12px;
                fill: #ffffff;
                font-weight: bold;
                }
                text.nonterminal      {font-family: -apple-system, BlinkMacSystemFont, "Segoe UI", Roboto, Ubuntu, Cantarell, Helvetica, sans-serif;
                font-size: 12px;
                fill: #e289a4;
                font-weight: normal;
                }
                text.regexp           {font-family: -apple-system, BlinkMacSystemFont, "Segoe UI", Roboto, Ubuntu, Cantarell, Helvetica, sans-serif;
                font-size: 12px;
                fill: #00141F;
                font-weight: normal;
                }
                rect, circle, polygon {fill: none; stroke: none;}
                rect.terminal         {fill: none; stroke: #be2f5b;}
                rect.nonterminal      {fill: rgba(255,255,255,0.1); stroke: none;}
                rect.text             {fill: none; stroke: none;}
                polygon.regexp        {fill: #C7ECFF; stroke: #038cbc;}
        </style>
    </defs>
    <polygon points="9 17 1 13 1 21"/>
         <polygon points="17 17 9 13 9 21"/>
         <rect x="31" y="3" width="62" height="32" rx="10"/>
         <rect x="29" y="1" width="62" height="32" class="terminal" rx="10"/>
         <text class="terminal" x="39" y="21">ALTER</text>
         <rect x="113" y="3" width="62" height="32" rx="10"/>
         <rect x="111" y="1" width="62" height="32" class="terminal" rx="10"/>
         <text class="terminal" x="121" y="21">TABLE</text><a xmlns:xlink="http://www.w3.org/1999/xlink" xlink:href="#tableName" xlink:title="tableName">
            <rect x="195" y="3" width="88" height="32"/>
            <rect x="193" y="1" width="88" height="32" class="nonterminal"/>
            <text class="nonterminal" x="203" y="21">tableName</text></a><rect x="323" y="3" width="48" height="32" rx="10"/>
         <rect x="321" y="1" width="48" height="32" class="terminal" rx="10"/>
         <text class="terminal" x="331" y="21">ADD</text>
         <rect x="323" y="47" width="74" height="32" rx="10"/>
         <rect x="321" y="45" width="74" height="32" class="terminal" rx="10"/>
         <text class="terminal" x="331" y="65">ATTACH</text>
         <rect x="323" y="91" width="58" height="32" rx="10"/>
         <rect x="321" y="89" width="58" height="32" class="terminal" rx="10"/>
         <text class="terminal" x="331" y="109">DROP</text>
         <rect x="323" y="135" width="76" height="32" rx="10"/>
         <rect x="321" y="133" width="76" height="32" class="terminal" rx="10"/>
         <text class="terminal" x="331" y="153">RENAME</text>
         <rect x="323" y="179" width="44" height="32" rx="10"/>
         <rect x="321" y="177" width="44" height="32" class="terminal" rx="10"/>
         <text class="terminal" x="331" y="197">SET</text>
         <svg:path xmlns:svg="http://www.w3.org/2000/svg" class="line" d="m17 17 h2 m0 0 h10 m62 0 h10 m0 0 h10 m62 0 h10 m0 0 h10 m88 0 h10 m20 0 h10 m48 0 h10 m0 0 h28 m-116 0 h20 m96 0 h20 m-136 0 q10 0 10 10 m116 0 q0 -10 10 -10 m-126 10 v24 m116 0 v-24 m-116 24 q0 10 10 10 m96 0 q10 0 10 -10 m-106 10 h10 m74 0 h10 m0 0 h2 m-106 -10 v20 m116 0 v-20 m-116 20 v24 m116 0 v-24 m-116 24 q0 10 10 10 m96 0 q10 0 10 -10 m-106 10 h10 m58 0 h10 m0 0 h18 m-106 -10 v20 m116 0 v-20 m-116 20 v24 m116 0 v-24 m-116 24 q0 10 10 10 m96 0 q10 0 10 -10 m-106 10 h10 m76 0 h10 m-106 -10 v20 m116 0 v-20 m-116 20 v24 m116 0 v-24 m-116 24 q0 10 10 10 m96 0 q10 0 10 -10 m-106 10 h10 m44 0 h10 m0 0 h32 m23 -176 h-3"/>
         <polygon points="437 17 445 13 445 21"/>
         <polygon points="437 17 429 13 429 21"/></svg>
