<?xml version="1.0" encoding="UTF-8"?>
<svg width="752pt" height="752pt" version="1.1" viewBox="0 0 752 752" xmlns="http://www.w3.org/2000/svg">
 <path d="m544.14 272.2c-2.5195-16.16-10.105-31.098-21.672-42.664-11.562-11.562-26.504-19.152-42.66-21.668-69.039-6.6914-138.57-6.6914-207.61 0-16.16 2.5156-31.098 10.105-42.664 21.668-11.562 11.566-19.152 26.504-21.668 42.664-6.6914 69.035-6.6914 138.55 0 207.59 2.5156 16.16 10.102 31.105 21.664 42.672 11.566 11.566 26.508 19.156 42.668 21.676 69.039 6.6914 138.57 6.6914 207.61 0 16.16-2.5195 31.102-10.109 42.664-21.676 11.566-11.566 19.152-26.512 21.668-42.672 6.6914-69.035 6.6914-138.55 0-207.59zm-62.07 60.426-103.11 116.22c-4.1953 4.6914-10.191 7.3828-16.484 7.3984h-0.12109c-6.2617 0.003906-12.234-2.6406-16.441-7.2812l-68.18-75.031c-4.1523-4.3281-6.375-10.148-6.168-16.137 0.21094-5.9922 2.832-11.645 7.2734-15.672 4.4375-4.0273 10.316-6.0898 16.301-5.7148 5.9805 0.375 11.559 3.1523 15.461 7.7031l51.531 56.77 86.738-97.676h0.003906c3.8906-4.4688 9.4062-7.1992 15.32-7.5781 5.9141-0.37891 11.734 1.6211 16.164 5.5547 4.4297 3.9336 7.1016 9.4766 7.4258 15.395 0.32031 5.918-1.7383 11.719-5.7148 16.109z" fill="#fff"/>
</svg>
