<svg width="18" height="18" fill="none" xmlns="http://www.w3.org/2000/svg"><path d="M12.656 4.769h-.281V3.577C12.375 1.6 10.865 0 9 0 7.136 0 5.625 1.6 5.625 3.577v1.192h-.281a2.183 2.183 0 0 0-1.538.65L0 3.46v2.65l3.094 1.592v1.836H0v2.384h3.108c.021.57.115 1.136.281 1.678L0 15.35V18l4.5-2.32c1.12 1.398 2.76 2.204 4.49 2.204 1.73 0 3.372-.806 4.49-2.203L17.98 18v-2.65L14.6 13.6c.166-.542.26-1.107.28-1.678H18V9.538h-3.094V7.702L18 6.11V3.46l-3.806 1.96a2.183 2.183 0 0 0-1.538-.65zM7.875 15.308c-1.508-.517-2.53-2.004-2.531-3.684v-4.47h2.53v8.154zm0-10.54v-1.19c0-.66.503-1.193 1.125-1.193s1.125.534 1.125 1.193V4.77h-2.25zm4.781 6.856c0 1.68-1.023 3.167-2.531 3.684V7.153h2.531v4.471z" fill="#fff"/></svg>