<svg fill="none" height="18" width="18" xmlns="http://www.w3.org/2000/svg"><path d="M1.707 18l3.103-3.116a6.183 6.183 0 0 0 3.437 1.056h.906a6.18 6.18 0 0 0 4.372-1.81l3.018-3.017L14.68 9.25 18 5.932l-1.708-1.708-3.32 3.319-2.517-2.516 3.32-3.32L12.067 0l-3.32 3.319L6.89 1.458 3.871 4.475a6.181 6.181 0 0 0-1.81 4.375v.905a6.18 6.18 0 0 0 1.056 3.437L0 16.294zm2.768-9.15A3.741 3.741 0 0 1 5.58 6.186l1.31-1.31 6.244 6.237-1.31 1.309a3.745 3.745 0 0 1-2.671 1.104h-.906c-1 .002-1.96-.396-2.668-1.104a3.761 3.761 0 0 1-1.104-2.667z" fill="#fff"/></svg>