<svg xmlns="http://www.w3.org/2000/svg" width="62" height="52" fill="none">
  <defs/>
  <path fill="#D14671" d="M55.22 29.198v7.38c0 .359-.018.735 0 1.093.018.61-.18 1.075-.778 1.308-.56.233-1.013 0-1.41-.412-2.985-2.974-5.987-5.93-8.971-8.904-.344-.34-.67-.483-1.158-.483-6.728.018-13.474.018-20.203.018-1.88 0-2.767-.878-2.767-2.724V3.078c0-1.612.959-2.544 2.587-2.544h36.86c1.61 0 2.568.95 2.568 2.562v23.576c0 1.558-.976 2.526-2.55 2.526H55.22zm-.127-14.888c0-1.594-1.23-2.83-2.84-2.848-1.663-.018-2.93 1.236-2.911 2.902.018 1.595 1.266 2.813 2.876 2.83 1.627 0 2.894-1.253 2.875-2.883zm-28.341 0c0 1.63 1.212 2.867 2.857 2.885a2.843 2.843 0 002.894-2.867c0-1.594-1.23-2.83-2.84-2.848-1.663-.018-2.911 1.182-2.911 2.83zm11.34.036c.018 1.613 1.266 2.849 2.858 2.83a2.896 2.896 0 002.894-2.901c0-1.577-1.267-2.813-2.894-2.813-1.628 0-2.858 1.254-2.858 2.884z"/>
  <path fill="#D14671" d="M17.868 12.985V26.474c0 2.777 1.845 4.622 4.667 4.622 6.312.018 12.606 0 18.918 0h.814c.018.27.036.466.036.645v7.202c0 1.827-.886 2.705-2.73 2.705H19.314c-.452 0-.796.126-1.121.448-2.984 2.974-5.987 5.93-8.971 8.904-.416.412-.85.698-1.447.43-.597-.27-.778-.753-.778-1.38.018-2.562 0-5.123 0-7.685v-.735c-1.374 0-2.677.018-3.997-.018-.416 0-.868-.053-1.248-.215-.977-.43-1.393-1.236-1.375-2.293V23.447v-7.81c0-1.685.96-2.652 2.641-2.652h14.849z"/>
</svg>
