<svg xmlns="http://www.w3.org/2000/svg" width="45" height="48" fill="none">
  <defs/>
  <path fill="#D14671" d="M44.258 30.687l-4.752-3.498a17.265 17.265 0 000-6.812l4.752-3.496a1.468 1.468 0 00.402-1.91l-3.391-5.874a1.469 1.469 0 00-1.863-.613l-5.412 2.375a17.175 17.175 0 00-5.875-3.403l-.657-5.865a1.469 1.469 0 00-1.46-1.307h-6.764a1.469 1.469 0 00-1.47 1.307l-.651 5.875a17.176 17.176 0 00-5.875 3.404L5.819 8.489a1.469 1.469 0 00-1.856.608L.57 14.972a1.469 1.469 0 00.403 1.909l4.751 3.499a17.281 17.281 0 000 6.815l-4.75 3.492a1.468 1.468 0 00-.404 1.91l3.392 5.875a1.469 1.469 0 001.86.61l5.414-2.373a17.175 17.175 0 005.875 3.403l.652 5.875a1.469 1.469 0 001.474 1.297h6.77a1.469 1.469 0 001.46-1.307l.652-5.875a17.148 17.148 0 005.875-3.402l5.419 2.377a1.469 1.469 0 001.855-.605l3.378-5.875a1.469 1.469 0 00-.39-1.91zm-21.642.44a7.344 7.344 0 110-14.687 7.344 7.344 0 010 14.688z"/>
</svg>
