<svg xmlns="http://www.w3.org/2000/svg" width="42" height="58" fill="none">
  <defs/>
  <g clip-path="url(#clip0)">
    <path fill="#D14671" d="M35.34 18.49c0 1.343.027 2.685 0 4.028 0 .395.107.658.401.948 4.143 4.397 6.04 9.61 5.587 15.612-.642 8.215-6.602 15.323-14.674 17.64C14.974 60.062 2.787 52.69.73 40.921c-1.177-6.634.694-12.453 5.292-17.402.294-.316.427-.632.427-1.054-.027-2.632-.053-5.265 0-7.898.134-6.187 4.624-11.874 10.638-13.506 7.403-2.028 15.1 2.159 17.533 9.557.481 1.474.748 3.001.748 4.554-.026 1.106-.026 2.212-.026 3.318zm-2.405 2.422c0-2.08.027-4.107 0-6.134a11.153 11.153 0 00-1.363-5.213C29.22 5.273 25.585 2.825 20.56 2.93c-6.227.132-11.386 5.24-11.68 11.4-.107 2.106-.053 4.213-.053 6.319 0 .079.027.184.053.237 8.019-5.003 16.01-5.003 24.055.026zM24.516 45.66v-.684-4.581c0-.422.107-.738.454-1.027 1.604-1.448 2.245-3.291 1.871-5.397-.48-2.66-2.566-4.555-5.265-4.871-2.512-.29-5.052 1.106-6.12 3.423-1.123 2.37-.535 5.107 1.47 6.95.213.184.373.527.373.816.027 1.58.027 3.186.027 4.766 0 .21.027.421.027.658 2.352-.053 4.704-.053 7.163-.053z"/>
  </g>
  <defs>
    <clipPath id="clip0">
      <path fill="#fff" d="M0 0h41v57H0z" transform="translate(.378 .534)"/>
    </clipPath>
  </defs>
</svg>
