<svg width="661" height="411" viewBox="0 0 661 411" fill="none" xmlns="http://www.w3.org/2000/svg">
<rect x="40.7568" width="586" height="411" rx="8" fill="#3D3F4D"/>
<path d="M40.3779 6.21582C40.3779 2.90211 43.0642 0.21582 46.3779 0.21582H620.378C623.692 0.21582 626.378 2.90211 626.378 6.21582V32.2158H40.3779V6.21582Z" fill="#2F313C"/>
<circle cx="60.5562" cy="16.3599" r="5.38136" fill="#6422F1"/>
<circle cx="75.6226" cy="16.3599" r="5.38136" fill="#F46591"/>
<circle cx="90.6929" cy="16.3599" r="5.38136" fill="#2BD38D"/>
<path d="M413.378 87.2158C413.378 83.9021 416.064 81.2158 419.378 81.2158H654.378C657.692 81.2158 660.378 83.9021 660.378 87.2158V345.216C660.378 348.53 657.692 351.216 654.378 351.216H419.378C416.064 351.216 413.378 348.53 413.378 345.216V87.2158Z" fill="#282A36"/>
<path d="M627.378 241.216C627.378 229.397 625.05 217.694 620.527 206.774C616.004 195.855 609.375 185.933 601.018 177.576C592.66 169.219 582.739 162.59 571.819 158.067C560.9 153.544 549.197 151.216 537.378 151.216C525.559 151.216 513.856 153.544 502.936 158.067C492.017 162.59 482.096 169.219 473.738 177.576C465.381 185.933 458.752 195.855 454.229 206.774C449.706 217.694 447.378 229.397 447.378 241.216H486.182C486.182 234.493 487.506 227.835 490.079 221.624C492.652 215.412 496.423 209.769 501.177 205.015C505.931 200.261 511.575 196.489 517.786 193.917C523.997 191.344 530.655 190.019 537.378 190.019C544.101 190.019 550.758 191.344 556.97 193.917C563.181 196.489 568.825 200.261 573.579 205.015C578.333 209.769 582.104 215.412 584.677 221.624C587.25 227.835 588.574 234.493 588.574 241.216H627.378Z" fill="#2F313B"/>
<path d="M447.378 241.216C447.378 219.584 455.169 198.676 469.325 182.319C483.481 165.962 503.055 155.251 524.463 152.147C545.871 149.043 567.681 153.753 585.9 165.416C604.118 177.078 617.527 194.912 623.671 215.653L586.466 226.675C582.971 214.876 575.343 204.731 564.979 198.097C554.616 191.463 542.209 188.784 530.031 190.549C517.853 192.315 506.719 198.408 498.666 207.713C490.614 217.017 486.182 228.911 486.182 241.216H447.378Z" fill="#D14671"/>
<circle cx="532.726" cy="234.793" r="12" transform="rotate(78.9892 532.726 234.793)" fill="#D14671"/>
<circle cx="532.726" cy="234.793" r="9.5" transform="rotate(78.9892 532.726 234.793)" stroke="#53555E" stroke-width="5"/>
<path d="M544.179 238.677L613.217 219.132L543.033 232.788C543.033 232.788 543.143 236.841 544.179 238.677Z" fill="#53555E"/>
<path d="M541.887 226.898L613.217 219.132L543.033 232.788C542.727 231.217 541.615 228.989 541.887 226.898Z" fill="#53555E"/>
<path d="M512.814 116.034C512.814 111.989 510.303 109.683 507.025 109.683C503.728 109.683 501.235 111.989 501.235 116.034C501.235 120.061 503.728 122.385 507.025 122.385C507.797 122.385 508.528 122.258 509.192 122.005L510.188 123.23H512.627L510.858 121.008C512.065 119.928 512.814 118.237 512.814 116.034ZM506.119 117.918L507.701 120.006C507.489 120.049 507.26 120.073 507.025 120.073C505.123 120.073 503.885 118.654 503.885 116.034C503.885 113.414 505.123 111.995 507.025 111.995C508.92 111.995 510.164 113.414 510.164 116.034C510.164 117.38 509.832 118.413 509.258 119.095L508.341 117.918H506.119ZM520.648 118.268C520.654 119.511 519.803 120.163 518.88 120.163C517.908 120.163 517.28 119.481 517.274 118.388V112.943H514.702V118.847C514.708 121.014 515.976 122.337 517.841 122.337C519.236 122.337 520.238 121.618 520.654 120.532H520.751V122.216H523.22V112.943H520.648V118.268ZM529.503 122.397C531.797 122.397 533.343 121.28 533.705 119.56L531.326 119.403C531.067 120.109 530.403 120.477 529.545 120.477C528.259 120.477 527.445 119.626 527.445 118.244V118.237H533.759V117.531C533.759 114.38 531.851 112.822 529.4 112.822C526.672 112.822 524.903 114.76 524.903 117.622C524.903 120.562 526.648 122.397 529.503 122.397ZM527.445 116.644C527.499 115.587 528.302 114.742 529.443 114.742C530.56 114.742 531.332 115.539 531.338 116.644H527.445ZM535.437 122.216H538.009V116.97C538.009 115.829 538.842 115.044 539.977 115.044C540.333 115.044 540.822 115.104 541.064 115.183V112.901C540.834 112.847 540.514 112.81 540.255 112.81C539.217 112.81 538.365 113.414 538.027 114.561H537.931V112.943H535.437V122.216ZM542.393 122.216H544.965V112.943H542.393V122.216ZM543.685 111.748C544.452 111.748 545.08 111.162 545.08 110.444C545.08 109.731 544.452 109.146 543.685 109.146C542.925 109.146 542.297 109.731 542.297 110.444C542.297 111.162 542.925 111.748 543.685 111.748ZM551.251 122.397C553.545 122.397 555.091 121.28 555.453 119.56L553.074 119.403C552.815 120.109 552.151 120.477 551.293 120.477C550.008 120.477 549.193 119.626 549.193 118.244V118.237H555.507V117.531C555.507 114.38 553.6 112.822 551.149 112.822C548.42 112.822 546.651 114.76 546.651 117.622C546.651 120.562 548.396 122.397 551.251 122.397ZM549.193 116.644C549.247 115.587 550.05 114.742 551.191 114.742C552.308 114.742 553.08 115.539 553.086 116.644H549.193ZM564.901 115.587C564.671 113.879 563.295 112.822 560.953 112.822C558.58 112.822 557.016 113.921 557.022 115.708C557.016 117.097 557.892 117.996 559.703 118.358L561.309 118.678C562.118 118.841 562.486 119.137 562.498 119.602C562.486 120.151 561.888 120.544 560.989 120.544C560.071 120.544 559.461 120.151 559.304 119.397L556.775 119.529C557.016 121.304 558.526 122.397 560.983 122.397C563.385 122.397 565.106 121.171 565.112 119.342C565.106 118.002 564.231 117.199 562.432 116.831L560.753 116.493C559.89 116.306 559.57 116.01 559.576 115.563C559.57 115.008 560.198 114.646 560.995 114.646C561.888 114.646 562.419 115.134 562.546 115.732L564.901 115.587Z" fill="white"/>
<path d="M513.244 287.454C517.165 287.454 519.969 285.298 519.96 282.315C519.969 280.142 518.588 278.591 516.023 278.267V278.131C517.975 277.781 519.321 276.4 519.313 274.44C519.321 271.687 516.909 269.523 513.296 269.523C509.716 269.523 507.023 271.619 506.972 274.636H510.509C510.551 273.307 511.77 272.446 513.278 272.446C514.77 272.446 515.767 273.349 515.759 274.662C515.767 276.034 514.6 276.963 512.921 276.963H511.293V279.673H512.921C514.898 279.673 516.134 280.662 516.125 282.068C516.134 283.457 514.94 284.412 513.253 284.412C511.625 284.412 510.406 283.56 510.338 282.281H506.622C506.682 285.332 509.409 287.454 513.244 287.454ZM529.457 287.599C533.846 287.599 536.497 284.258 536.505 278.506C536.514 272.795 533.829 269.523 529.457 269.523C525.076 269.523 522.417 272.787 522.408 278.506C522.391 284.241 525.059 287.591 529.457 287.599ZM529.457 284.54C527.454 284.54 526.158 282.528 526.167 278.506C526.176 274.543 527.462 272.548 529.457 272.548C531.443 272.548 532.738 274.543 532.738 278.506C532.747 282.528 531.451 284.54 529.457 284.54ZM545.98 287.599C550.369 287.599 553.02 284.258 553.028 278.506C553.037 272.795 550.352 269.523 545.98 269.523C541.6 269.523 538.94 272.787 538.932 278.506C538.915 284.241 541.582 287.591 545.98 287.599ZM545.98 284.54C543.977 284.54 542.682 282.528 542.69 278.506C542.699 274.543 543.986 272.548 545.98 272.548C547.966 272.548 549.261 274.543 549.261 278.506C549.27 282.528 547.975 284.54 545.98 284.54ZM558.728 274.125H554.978L558.728 280.67L554.842 287.216H558.592L561.131 282.69L563.714 287.216H567.421L563.526 280.67L567.319 274.125H563.595L561.131 278.702L558.728 274.125Z" fill="white"/>
<path d="M511.699 312.216H513.02V307.337H517.75V306.165H513.02V302.479H518.24V301.307H511.699V312.216ZM522.74 312.408C524.167 312.408 524.913 311.641 525.169 311.108H525.233V312.216H526.49V306.825C526.49 304.226 524.508 303.927 523.464 303.927C522.229 303.927 520.822 304.354 520.183 305.845L521.376 306.271C521.653 305.675 522.308 305.035 523.507 305.035C524.663 305.035 525.233 305.648 525.233 306.697V306.74C525.233 307.347 524.615 307.294 523.123 307.486C521.605 307.683 519.949 308.018 519.949 309.893C519.949 311.491 521.184 312.408 522.74 312.408ZM522.932 311.278C521.93 311.278 521.206 310.831 521.206 309.957C521.206 308.998 522.079 308.7 523.059 308.572C523.592 308.508 525.02 308.359 525.233 308.104V309.254C525.233 310.277 524.423 311.278 522.932 311.278ZM534.58 305.866C534.186 304.705 533.301 303.927 531.682 303.927C529.956 303.927 528.678 304.908 528.678 306.293C528.678 307.422 529.349 308.178 530.851 308.53L532.215 308.849C533.04 309.041 533.429 309.435 533.429 310C533.429 310.703 532.684 311.278 531.512 311.278C530.484 311.278 529.839 310.836 529.615 309.957L528.422 310.256C528.715 311.646 529.86 312.386 531.533 312.386C533.435 312.386 534.729 311.348 534.729 309.936C534.729 308.796 534.015 308.077 532.556 307.72L531.341 307.422C530.372 307.182 529.935 306.857 529.935 306.229C529.935 305.525 530.681 305.014 531.682 305.014C532.779 305.014 533.232 305.621 533.451 306.186L534.58 305.866ZM540.18 304.034H538.432V302.074H537.175V304.034H535.939V305.099H537.175V310.213C537.175 311.641 538.326 312.322 539.391 312.322C539.86 312.322 540.158 312.237 540.329 312.173L540.073 311.044C539.966 311.065 539.796 311.108 539.519 311.108C538.965 311.108 538.432 310.937 538.432 309.872V305.099H540.18V304.034ZM545.413 312.386C547.075 312.386 548.289 311.555 548.673 310.32L547.458 309.979C547.139 310.831 546.398 311.257 545.413 311.257C543.938 311.257 542.92 310.304 542.862 308.551H548.801V308.018C548.801 304.972 546.99 303.927 545.285 303.927C543.069 303.927 541.599 305.675 541.599 308.189C541.599 310.703 543.048 312.386 545.413 312.386ZM542.862 307.464C542.947 306.191 543.847 305.057 545.285 305.057C546.649 305.057 547.522 306.079 547.522 307.464H542.862ZM550.713 312.216H551.97V307.038C551.97 305.93 552.844 305.121 554.037 305.121C554.373 305.121 554.719 305.185 554.804 305.206V303.927C554.66 303.917 554.33 303.906 554.143 303.906C553.163 303.906 552.311 304.46 552.013 305.27H551.928V304.034H550.713V312.216Z" fill="white"/>
<path d="M0.37793 87C0.37793 83.6863 3.06422 81 6.37793 81H395.378C398.692 81 401.378 83.6863 401.378 87V367C401.378 370.314 398.692 373 395.378 373H6.37794C3.06423 373 0.37793 370.314 0.37793 367V87Z" fill="#282A36"/>
<path d="M19.3779 143.216H382.378" stroke="#3D3F4D" stroke-dasharray="5 5"/>
<path d="M19.3779 221.216H382.378" stroke="#3D3F4D" stroke-dasharray="5 5"/>
<path d="M19.3779 268.216H382.378" stroke="#3D3F4D" stroke-dasharray="5 5"/>
<path d="M173.066 109.852H170.453V122.216H173.066V109.852ZM177.741 116.855C177.747 115.66 178.459 114.959 179.497 114.959C180.53 114.959 181.151 115.636 181.145 116.771V122.216H183.717V116.312C183.717 114.15 182.449 112.822 180.518 112.822C179.141 112.822 178.145 113.498 177.729 114.579H177.62V112.943H175.169V122.216H177.741V116.855ZM193.459 115.587C193.23 113.879 191.853 112.822 189.511 112.822C187.139 112.822 185.575 113.921 185.581 115.708C185.575 117.097 186.45 117.996 188.261 118.358L189.867 118.678C190.676 118.841 191.044 119.137 191.057 119.602C191.044 120.151 190.447 120.544 189.547 120.544C188.63 120.544 188.02 120.151 187.863 119.397L185.334 119.529C185.575 121.304 187.084 122.397 189.541 122.397C191.944 122.397 193.665 121.171 193.671 119.342C193.665 118.002 192.789 117.199 190.99 116.831L189.312 116.493C188.449 116.306 188.129 116.01 188.135 115.563C188.129 115.008 188.756 114.646 189.553 114.646C190.447 114.646 190.978 115.134 191.105 115.732L193.459 115.587ZM200.222 112.943H198.477V110.722H195.906V112.943H194.638V114.875H195.906V119.704C195.894 121.522 197.131 122.421 198.997 122.343C199.661 122.318 200.132 122.186 200.391 122.101L199.987 120.187C199.86 120.212 199.588 120.272 199.347 120.272C198.834 120.272 198.477 120.079 198.477 119.366V114.875H200.222V112.943ZM204.542 122.391C205.912 122.391 206.799 121.793 207.252 120.93H207.325V122.216H209.763V115.962C209.763 113.752 207.892 112.822 205.827 112.822C203.606 112.822 202.145 113.885 201.789 115.575L204.167 115.768C204.342 115.153 204.892 114.7 205.815 114.7C206.691 114.7 207.192 115.141 207.192 115.901V115.937C207.192 116.535 206.558 116.614 204.946 116.771C203.111 116.94 201.463 117.555 201.463 119.626C201.463 121.461 202.773 122.391 204.542 122.391ZM205.278 120.616C204.487 120.616 203.92 120.248 203.92 119.541C203.92 118.817 204.517 118.461 205.423 118.334C205.984 118.256 206.902 118.123 207.21 117.918V118.902C207.21 119.873 206.407 120.616 205.278 120.616ZM214.33 116.855C214.336 115.66 215.049 114.959 216.087 114.959C217.119 114.959 217.741 115.636 217.735 116.771V122.216H220.307V116.312C220.307 114.15 219.039 112.822 217.107 112.822C215.731 112.822 214.735 113.498 214.318 114.579H214.21V112.943H211.759V122.216H214.33V116.855ZM226.524 122.397C228.993 122.397 230.544 120.948 230.665 118.817H228.238C228.087 119.807 227.435 120.362 226.554 120.362C225.352 120.362 224.574 119.354 224.574 117.579C224.574 115.829 225.358 114.827 226.554 114.827C227.495 114.827 228.099 115.448 228.238 116.372H230.665C230.556 114.229 228.932 112.822 226.511 112.822C223.698 112.822 221.96 114.772 221.96 117.616C221.96 120.435 223.668 122.397 226.524 122.397ZM236.537 122.397C238.831 122.397 240.377 121.28 240.739 119.56L238.36 119.403C238.101 120.109 237.437 120.477 236.58 120.477C235.294 120.477 234.479 119.626 234.479 118.244V118.237H240.793V117.531C240.793 114.38 238.886 112.822 236.435 112.822C233.706 112.822 231.937 114.76 231.937 117.622C231.937 120.562 233.682 122.397 236.537 122.397ZM234.479 116.644C234.533 115.587 235.336 114.742 236.477 114.742C237.594 114.742 238.366 115.539 238.373 116.644H234.479Z" fill="white"/>
<path d="M207.816 312.381H218.288V316.216H222.699V312.381H225.405V308.684H222.699V294.398H216.925L207.816 308.748V312.381ZM218.374 308.684H212.461V308.513L218.203 299.426H218.374V308.684ZM232.314 299.852H227.626L232.314 308.034L227.456 316.216H232.143L235.318 310.559L238.546 316.216H243.18L238.312 308.034L243.052 299.852H238.397L235.318 305.573L232.314 299.852Z" fill="#D14671"/>
<path d="M264.665 307.034H265.943C265.885 305.388 264.367 304.158 262.257 304.158C260.169 304.158 258.528 305.372 258.528 307.204C258.528 308.675 259.594 309.548 261.298 310.038L262.641 310.422C263.791 310.741 264.814 311.146 264.814 312.233C264.814 313.426 263.663 314.214 262.151 314.214C260.851 314.214 259.7 313.639 259.594 312.403H258.23C258.358 314.193 259.807 315.408 262.151 315.408C264.665 315.408 266.092 314.023 266.092 312.254C266.092 310.209 264.153 309.548 263.024 309.25L261.916 308.952C261.107 308.739 259.807 308.312 259.807 307.141C259.807 306.097 260.766 305.329 262.215 305.329C263.536 305.329 264.537 305.958 264.665 307.034ZM268.094 315.216H269.351V310.102C269.351 308.904 270.225 308.057 271.205 308.057C272.158 308.057 272.824 308.68 272.824 309.612V315.216H274.102V309.889C274.102 308.834 274.763 308.057 275.914 308.057C276.808 308.057 277.575 308.531 277.575 309.74V315.216H278.833V309.74C278.833 307.817 277.799 306.927 276.34 306.927C275.168 306.927 274.31 307.465 273.889 308.312H273.804C273.399 307.439 272.686 306.927 271.61 306.927C270.544 306.927 269.756 307.439 269.415 308.312H269.308V307.034H268.094V315.216ZM283.539 315.408C284.966 315.408 285.712 314.641 285.968 314.108H286.032V315.216H287.289V309.825C287.289 307.226 285.307 306.927 284.263 306.927C283.027 306.927 281.621 307.354 280.982 308.845L282.175 309.271C282.452 308.675 283.107 308.035 284.306 308.035C285.462 308.035 286.032 308.648 286.032 309.697V309.74C286.032 310.347 285.414 310.294 283.922 310.486C282.404 310.683 280.748 311.018 280.748 312.893C280.748 314.491 281.983 315.408 283.539 315.408ZM283.73 314.278C282.729 314.278 282.005 313.831 282.005 312.957C282.005 311.998 282.878 311.7 283.858 311.572C284.391 311.508 285.819 311.359 286.032 311.104V312.254C286.032 313.277 285.222 314.278 283.73 314.278ZM290.84 304.307H289.583V315.216H290.84V304.307ZM294.4 304.307H293.143V315.216H294.4V304.307ZM300.133 315.386C301.795 315.386 303.009 314.555 303.393 313.32L302.178 312.979C301.859 313.831 301.118 314.257 300.133 314.257C298.657 314.257 297.64 313.304 297.581 311.551H303.521V311.018C303.521 307.972 301.709 306.927 300.005 306.927C297.789 306.927 296.319 308.675 296.319 311.189C296.319 313.703 297.768 315.386 300.133 315.386ZM297.581 310.464C297.666 309.191 298.567 308.057 300.005 308.057C301.369 308.057 302.242 309.079 302.242 310.464H297.581ZM305.433 315.216H306.69V310.038C306.69 308.93 307.563 308.121 308.757 308.121C309.092 308.121 309.438 308.185 309.524 308.206V306.927C309.38 306.917 309.05 306.906 308.863 306.906C307.883 306.906 307.031 307.46 306.733 308.27H306.647V307.034H305.433V315.216ZM316.724 304.307H315.403V315.216H316.724V304.307ZM320.459 310.294C320.459 308.866 321.344 308.057 322.547 308.057C323.714 308.057 324.422 308.818 324.422 310.102V315.216H325.68V310.017C325.68 307.929 324.566 306.927 322.91 306.927C321.674 306.927 320.907 307.481 320.523 308.312H320.417V307.034H319.202V315.216H320.459V310.294ZM333.772 308.866C333.378 307.705 332.494 306.927 330.874 306.927C329.149 306.927 327.87 307.908 327.87 309.293C327.87 310.422 328.541 311.178 330.044 311.53L331.407 311.849C332.233 312.041 332.622 312.435 332.622 313C332.622 313.703 331.876 314.278 330.704 314.278C329.676 314.278 329.031 313.836 328.808 312.957L327.615 313.256C327.907 314.646 329.053 315.386 330.725 315.386C332.627 315.386 333.921 314.348 333.921 312.936C333.921 311.796 333.208 311.077 331.748 310.72L330.534 310.422C329.564 310.182 329.127 309.857 329.127 309.229C329.127 308.525 329.873 308.014 330.874 308.014C331.972 308.014 332.425 308.621 332.643 309.186L333.772 308.866ZM339.372 307.034H337.625V305.074H336.368V307.034H335.132V308.099H336.368V313.213C336.368 314.641 337.518 315.322 338.584 315.322C339.052 315.322 339.351 315.237 339.521 315.173L339.265 314.044C339.159 314.065 338.988 314.108 338.711 314.108C338.157 314.108 337.625 313.937 337.625 312.872V308.099H339.372V307.034ZM343.671 315.408C345.098 315.408 345.844 314.641 346.1 314.108H346.163V315.216H347.421V309.825C347.421 307.226 345.439 306.927 344.395 306.927C343.159 306.927 341.753 307.354 341.114 308.845L342.307 309.271C342.584 308.675 343.239 308.035 344.438 308.035C345.593 308.035 346.163 308.648 346.163 309.697V309.74C346.163 310.347 345.546 310.294 344.054 310.486C342.536 310.683 340.879 311.018 340.879 312.893C340.879 314.491 342.115 315.408 343.671 315.408ZM343.862 314.278C342.861 314.278 342.136 313.831 342.136 312.957C342.136 311.998 343.01 311.7 343.99 311.572C344.523 311.508 345.95 311.359 346.163 311.104V312.254C346.163 313.277 345.354 314.278 343.862 314.278ZM350.972 310.294C350.972 308.866 351.856 308.057 353.06 308.057C354.227 308.057 354.935 308.818 354.935 310.102V315.216H356.192V310.017C356.192 307.929 355.079 306.927 353.422 306.927C352.187 306.927 351.42 307.481 351.036 308.312H350.93V307.034H349.715V315.216H350.972V310.294ZM361.813 315.386C363.624 315.386 364.818 314.278 365.031 312.829H363.774C363.539 313.724 362.793 314.257 361.813 314.257C360.322 314.257 359.363 313.021 359.363 311.125C359.363 309.271 360.343 308.057 361.813 308.057C362.921 308.057 363.582 308.739 363.774 309.484H365.031C364.818 307.95 363.518 306.927 361.792 306.927C359.576 306.927 358.106 308.675 358.106 311.168C358.106 313.618 359.512 315.386 361.813 315.386ZM370.299 315.386C371.961 315.386 373.175 314.555 373.559 313.32L372.344 312.979C372.025 313.831 371.284 314.257 370.299 314.257C368.823 314.257 367.806 313.304 367.747 311.551H373.687V311.018C373.687 307.972 371.875 306.927 370.171 306.927C367.955 306.927 366.485 308.675 366.485 311.189C366.485 313.703 367.934 315.386 370.299 315.386ZM367.747 310.464C367.832 309.191 368.733 308.057 370.171 308.057C371.535 308.057 372.408 309.079 372.408 310.464H367.747Z" fill="white"/>
<rect x="33.3779" y="143.216" width="25" height="174" fill="#E7A5B9"/>
<rect x="77.3779" y="223.216" width="25" height="93.5" fill="#EB92AE"/>
<rect x="121.378" y="270.216" width="25" height="46.75" fill="#EC779B"/>
<rect x="165.378" y="293.216" width="25" height="23.375" fill="#D14671"/>
<path d="M32.0768 333.21H36.1847V335H37.1904V333.21H38.3836V332.273H37.1904V326.273H35.912L32.0768 332.341V333.21ZM36.1847 332.273H33.2188V332.205L36.1166 327.619H36.1847V332.273ZM36.0086 342.767C35.7458 341.993 35.1563 341.474 34.0768 341.474C32.9262 341.474 32.074 342.128 32.074 343.051C32.074 343.804 32.5214 344.308 33.5228 344.543L34.4319 344.756C34.9823 344.884 35.2416 345.146 35.2416 345.523C35.2416 345.991 34.7444 346.375 33.9632 346.375C33.2778 346.375 32.8481 346.08 32.699 345.494L31.9035 345.693C32.0988 346.62 32.8623 347.114 33.9774 347.114C35.2451 347.114 36.108 346.421 36.108 345.48C36.108 344.72 35.6322 344.241 34.6592 344.003L33.8495 343.804C33.2032 343.644 32.912 343.428 32.912 343.009C32.912 342.54 33.4092 342.199 34.0768 342.199C34.8083 342.199 35.1102 342.604 35.2558 342.98L36.0086 342.767ZM39.6565 347.114C40.7645 347.114 41.5741 346.56 41.8298 345.736L41.0202 345.509C40.8071 346.077 40.3135 346.361 39.6565 346.361C38.6729 346.361 37.9946 345.725 37.9555 344.557H41.915V344.202C41.915 342.17 40.7077 341.474 39.5713 341.474C38.094 341.474 37.1139 342.639 37.1139 344.315C37.1139 345.991 38.0798 347.114 39.6565 347.114ZM37.9555 343.832C38.0123 342.984 38.6125 342.227 39.5713 342.227C40.4804 342.227 41.0628 342.909 41.0628 343.832H37.9555ZM43.1899 347H44.028V343.548C44.028 342.81 44.6104 342.27 45.4058 342.27C45.6295 342.27 45.8604 342.312 45.9172 342.327V341.474C45.8213 341.467 45.6011 341.46 45.4768 341.46C44.8234 341.46 44.2552 341.83 44.0564 342.369H43.9996V341.545H43.1899V347ZM51.5368 341.545H50.6278L49.1221 345.892H49.0653L47.5596 341.545H46.6505L48.6675 347H49.5198L51.5368 341.545ZM54.7346 347.114C55.8426 347.114 56.6523 346.56 56.9079 345.736L56.0983 345.509C55.8852 346.077 55.3916 346.361 54.7346 346.361C53.751 346.361 53.0727 345.725 53.0336 344.557H56.9932V344.202C56.9932 342.17 55.7858 341.474 54.6494 341.474C53.1721 341.474 52.192 342.639 52.192 344.315C52.192 345.991 53.1579 347.114 54.7346 347.114ZM53.0336 343.832C53.0905 342.984 53.6906 342.227 54.6494 342.227C55.5585 342.227 56.1409 342.909 56.1409 343.832H53.0336ZM58.268 347H59.1061V343.548C59.1061 342.81 59.6885 342.27 60.4839 342.27C60.7077 342.27 60.9385 342.312 60.9953 342.327V341.474C60.8994 341.467 60.6792 341.46 60.555 341.46C59.9015 341.46 59.3334 341.83 59.1345 342.369H59.0777V341.545H58.268V347ZM65.8524 342.767C65.5896 341.993 65.0001 341.474 63.9205 341.474C62.77 341.474 61.9177 342.128 61.9177 343.051C61.9177 343.804 62.3651 344.308 63.3666 344.543L64.2757 344.756C64.8261 344.884 65.0853 345.146 65.0853 345.523C65.0853 345.991 64.5882 346.375 63.8069 346.375C63.1215 346.375 62.6919 346.08 62.5427 345.494L61.7472 345.693C61.9426 346.62 62.7061 347.114 63.8211 347.114C65.0889 347.114 65.9518 346.421 65.9518 345.48C65.9518 344.72 65.4759 344.241 64.5029 344.003L63.6933 343.804C63.047 343.644 62.7558 343.428 62.7558 343.009C62.7558 342.54 63.2529 342.199 63.9205 342.199C64.6521 342.199 64.9539 342.604 65.0995 342.98L65.8524 342.767Z" fill="#E7A5B9"/>
<path d="M81.2302 335.119C82.922 335.119 84.1791 334.058 84.1791 332.631C84.1791 331.523 83.5228 330.717 82.4234 330.534V330.466C83.3055 330.197 83.8552 329.473 83.8552 328.489C83.8552 327.253 82.8794 326.153 81.2643 326.153C79.7558 326.153 78.5029 327.082 78.4518 328.455H79.4745C79.5129 327.585 80.3396 327.074 81.2472 327.074C82.2103 327.074 82.8325 327.658 82.8325 328.54C82.8325 329.46 82.1123 330.057 81.0768 330.057H80.3779V330.994H81.0768C82.4021 330.994 83.1393 331.668 83.1393 332.631C83.1393 333.555 82.3339 334.182 81.2132 334.182C80.2032 334.182 79.4021 333.662 79.3382 332.818H78.2643C78.3282 334.19 79.5384 335.119 81.2302 335.119ZM82.0086 342.767C81.7458 341.993 81.1563 341.474 80.0768 341.474C78.9262 341.474 78.074 342.128 78.074 343.051C78.074 343.804 78.5214 344.308 79.5228 344.543L80.4319 344.756C80.9823 344.884 81.2416 345.146 81.2416 345.523C81.2416 345.991 80.7444 346.375 79.9632 346.375C79.2778 346.375 78.8481 346.08 78.699 345.494L77.9035 345.693C78.0988 346.62 78.8623 347.114 79.9774 347.114C81.2451 347.114 82.108 346.421 82.108 345.48C82.108 344.72 81.6322 344.241 80.6592 344.003L79.8495 343.804C79.2032 343.644 78.912 343.428 78.912 343.009C78.912 342.54 79.4092 342.199 80.0768 342.199C80.8083 342.199 81.1102 342.604 81.2558 342.98L82.0086 342.767ZM85.6565 347.114C86.7645 347.114 87.5741 346.56 87.8298 345.736L87.0202 345.509C86.8071 346.077 86.3135 346.361 85.6565 346.361C84.6729 346.361 83.9946 345.725 83.9555 344.557H87.915V344.202C87.915 342.17 86.7077 341.474 85.5713 341.474C84.094 341.474 83.1139 342.639 83.1139 344.315C83.1139 345.991 84.0798 347.114 85.6565 347.114ZM83.9555 343.832C84.0123 342.984 84.6125 342.227 85.5713 342.227C86.4804 342.227 87.0628 342.909 87.0628 343.832H83.9555ZM89.1899 347H90.028V343.548C90.028 342.81 90.6104 342.27 91.4058 342.27C91.6295 342.27 91.8604 342.312 91.9172 342.327V341.474C91.8213 341.467 91.6011 341.46 91.4768 341.46C90.8234 341.46 90.2552 341.83 90.0564 342.369H89.9996V341.545H89.1899V347ZM97.5368 341.545H96.6278L95.1221 345.892H95.0653L93.5596 341.545H92.6505L94.6675 347H95.5198L97.5368 341.545ZM100.735 347.114C101.843 347.114 102.652 346.56 102.908 345.736L102.098 345.509C101.885 346.077 101.392 346.361 100.735 346.361C99.751 346.361 99.0727 345.725 99.0336 344.557H102.993V344.202C102.993 342.17 101.786 341.474 100.649 341.474C99.1721 341.474 98.192 342.639 98.192 344.315C98.192 345.991 99.1579 347.114 100.735 347.114ZM99.0336 343.832C99.0905 342.984 99.6906 342.227 100.649 342.227C101.559 342.227 102.141 342.909 102.141 343.832H99.0336ZM104.268 347H105.106V343.548C105.106 342.81 105.688 342.27 106.484 342.27C106.708 342.27 106.938 342.312 106.995 342.327V341.474C106.899 341.467 106.679 341.46 106.555 341.46C105.902 341.46 105.333 341.83 105.134 342.369H105.078V341.545H104.268V347ZM111.852 342.767C111.59 341.993 111 341.474 109.921 341.474C108.77 341.474 107.918 342.128 107.918 343.051C107.918 343.804 108.365 344.308 109.367 344.543L110.276 344.756C110.826 344.884 111.085 345.146 111.085 345.523C111.085 345.991 110.588 346.375 109.807 346.375C109.122 346.375 108.692 346.08 108.543 345.494L107.747 345.693C107.943 346.62 108.706 347.114 109.821 347.114C111.089 347.114 111.952 346.421 111.952 345.48C111.952 344.72 111.476 344.241 110.503 344.003L109.693 343.804C109.047 343.644 108.756 343.428 108.756 343.009C108.756 342.54 109.253 342.199 109.921 342.199C110.652 342.199 110.954 342.604 111.1 342.98L111.852 342.767Z" fill="#E7A5B9"/>
<path d="M122.281 335H127.787V334.062H123.73V333.994L125.69 331.898C127.19 330.291 127.634 329.541 127.634 328.574C127.634 327.227 126.543 326.153 125.009 326.153C123.479 326.153 122.315 327.193 122.315 328.727H123.321C123.321 327.734 123.965 327.074 124.975 327.074C125.921 327.074 126.645 327.653 126.645 328.574C126.645 329.379 126.172 329.976 125.162 331.08L122.281 334.233V335ZM126.009 342.767C125.746 341.993 125.156 341.474 124.077 341.474C122.926 341.474 122.074 342.128 122.074 343.051C122.074 343.804 122.521 344.308 123.523 344.543L124.432 344.756C124.982 344.884 125.242 345.146 125.242 345.523C125.242 345.991 124.744 346.375 123.963 346.375C123.278 346.375 122.848 346.08 122.699 345.494L121.903 345.693C122.099 346.62 122.862 347.114 123.977 347.114C125.245 347.114 126.108 346.421 126.108 345.48C126.108 344.72 125.632 344.241 124.659 344.003L123.85 343.804C123.203 343.644 122.912 343.428 122.912 343.009C122.912 342.54 123.409 342.199 124.077 342.199C124.808 342.199 125.11 342.604 125.256 342.98L126.009 342.767ZM129.657 347.114C130.764 347.114 131.574 346.56 131.83 345.736L131.02 345.509C130.807 346.077 130.313 346.361 129.657 346.361C128.673 346.361 127.995 345.725 127.956 344.557H131.915V344.202C131.915 342.17 130.708 341.474 129.571 341.474C128.094 341.474 127.114 342.639 127.114 344.315C127.114 345.991 128.08 347.114 129.657 347.114ZM127.956 343.832C128.012 342.984 128.612 342.227 129.571 342.227C130.48 342.227 131.063 342.909 131.063 343.832H127.956ZM133.19 347H134.028V343.548C134.028 342.81 134.61 342.27 135.406 342.27C135.63 342.27 135.86 342.312 135.917 342.327V341.474C135.821 341.467 135.601 341.46 135.477 341.46C134.823 341.46 134.255 341.83 134.056 342.369H134V341.545H133.19V347ZM141.537 341.545H140.628L139.122 345.892H139.065L137.56 341.545H136.65L138.668 347H139.52L141.537 341.545ZM144.735 347.114C145.843 347.114 146.652 346.56 146.908 345.736L146.098 345.509C145.885 346.077 145.392 346.361 144.735 346.361C143.751 346.361 143.073 345.725 143.034 344.557H146.993V344.202C146.993 342.17 145.786 341.474 144.649 341.474C143.172 341.474 142.192 342.639 142.192 344.315C142.192 345.991 143.158 347.114 144.735 347.114ZM143.034 343.832C143.09 342.984 143.691 342.227 144.649 342.227C145.559 342.227 146.141 342.909 146.141 343.832H143.034ZM148.268 347H149.106V343.548C149.106 342.81 149.688 342.27 150.484 342.27C150.708 342.27 150.938 342.312 150.995 342.327V341.474C150.899 341.467 150.679 341.46 150.555 341.46C149.902 341.46 149.333 341.83 149.134 342.369H149.078V341.545H148.268V347ZM155.852 342.767C155.59 341.993 155 341.474 153.921 341.474C152.77 341.474 151.918 342.128 151.918 343.051C151.918 343.804 152.365 344.308 153.367 344.543L154.276 344.756C154.826 344.884 155.085 345.146 155.085 345.523C155.085 345.991 154.588 346.375 153.807 346.375C153.122 346.375 152.692 346.08 152.543 345.494L151.747 345.693C151.943 346.62 152.706 347.114 153.821 347.114C155.089 347.114 155.952 346.421 155.952 345.48C155.952 344.72 155.476 344.241 154.503 344.003L153.693 343.804C153.047 343.644 152.756 343.428 152.756 343.009C152.756 342.54 153.253 342.199 153.921 342.199C154.652 342.199 154.954 342.604 155.1 342.98L155.852 342.767Z" fill="#E7A5B9"/>
<path d="M169.882 326.273H168.148L165.987 327.641V329.277L167.986 328.024H168.037V335H169.882V326.273ZM170.52 343.101C170.385 342.096 169.575 341.474 168.198 341.474C166.802 341.474 165.882 342.121 165.886 343.172C165.882 343.989 166.397 344.518 167.462 344.731L168.407 344.919C168.883 345.015 169.1 345.189 169.107 345.462C169.1 345.786 168.748 346.016 168.219 346.016C167.679 346.016 167.32 345.786 167.228 345.342L165.74 345.42C165.882 346.464 166.77 347.107 168.215 347.107C169.629 347.107 170.641 346.386 170.644 345.31C170.641 344.521 170.126 344.049 169.068 343.832L168.08 343.634C167.573 343.523 167.384 343.349 167.388 343.087C167.384 342.76 167.754 342.547 168.222 342.547C168.748 342.547 169.06 342.835 169.135 343.186L170.52 343.101ZM174.083 347.107C175.432 347.107 176.341 346.45 176.554 345.438L175.155 345.345C175.002 345.761 174.612 345.977 174.108 345.977C173.351 345.977 172.872 345.477 172.872 344.663V344.66H176.586V344.244C176.586 342.391 175.464 341.474 174.022 341.474C172.417 341.474 171.377 342.614 171.377 344.298C171.377 346.027 172.403 347.107 174.083 347.107ZM172.872 343.722C172.904 343.101 173.376 342.604 174.047 342.604C174.704 342.604 175.159 343.072 175.162 343.722H172.872ZM177.573 347H179.086V343.914C179.086 343.243 179.576 342.781 180.244 342.781C180.453 342.781 180.741 342.817 180.883 342.863V341.521C180.748 341.489 180.56 341.467 180.407 341.467C179.796 341.467 179.296 341.822 179.097 342.497H179.04V341.545H177.573V347ZM186.916 341.545H185.315L184.186 345.448H184.129L182.996 341.545H181.398L183.305 347H185.009L186.916 341.545ZM189.991 347.107C191.34 347.107 192.249 346.45 192.462 345.438L191.063 345.345C190.911 345.761 190.52 345.977 190.016 345.977C189.259 345.977 188.78 345.477 188.78 344.663V344.66H192.494V344.244C192.494 342.391 191.372 341.474 189.93 341.474C188.325 341.474 187.285 342.614 187.285 344.298C187.285 346.027 188.311 347.107 189.991 347.107ZM188.78 343.722C188.812 343.101 189.284 342.604 189.955 342.604C190.612 342.604 191.067 343.072 191.07 343.722H188.78ZM193.482 347H194.994V343.914C194.994 343.243 195.484 342.781 196.152 342.781C196.362 342.781 196.649 342.817 196.791 342.863V341.521C196.656 341.489 196.468 341.467 196.315 341.467C195.705 341.467 195.204 341.822 195.005 342.497H194.948V341.545H193.482V347Z" fill="white"/>
</svg>
