<svg xmlns="http://www.w3.org/2000/svg" width="56" height="56" fill="none">
  <defs/>
  <path fill="#D14671" fill-rule="evenodd" d="M55.22 1.717c.01-.421.02-.85.035-1.292-.425.015-.836.024-1.235.032-.884.018-1.712.034-2.527.13-6.68.68-12.619 3.327-18.074 7.156-4.066 2.847-7.63 6.256-10.807 10.071-2.341 2.806-4.372 5.805-5.774 9.2-.925 2.223-1.52 4.502-1.302 6.935.096 1.027.356 2.006.917 2.955l.922-.922c.953-.953 1.905-1.903 2.857-2.852 1.9-1.898 3.8-3.792 5.689-5.694.515-.515 1.087-.758 1.794-.556 1.25.357 1.549 1.859.558 2.85l-8.934 8.934-.564.563c1.444.802 2.946 1.023 4.488.933 3.209-.19 6.09-1.387 8.788-3.02 7.114-4.288 12.814-10.047 17.305-17.015 3.091-4.795 5.146-9.985 5.737-15.686.088-.89.108-1.785.128-2.722zm-3.646 2.388c-.443 4.083-1.748 7.808-3.655 11.437-3.108-2.099-5.653-4.664-7.83-7.753 3.61-1.906 7.355-3.211 11.485-3.684zm-41.378 13.1c2.193-1.38 4.374-1.22 6.466.173.576.378 1.069.89 1.555 1.395l.11.115c.116.116.096.504-.03.669-1.973 2.921-3.675 5.978-4.63 9.45h-.001c-.155 0-.31.001-.465-.018C9.1 28.385 5 27.78.89 27.168a1.726 1.726 0 01-.359-.095 3.686 3.686 0 00-.154-.05l9.818-9.818zM28.63 55.226l-.013-.039a2.9 2.9 0 01-.105-.358l-1.84-12.445a3.466 3.466 0 01-.039-.388c2.348-.644 4.55-1.627 6.636-2.861.592-.347 1.17-.722 1.749-1.097.38-.246.76-.492 1.143-.731.146-.088.466-.117.572-.03 1.288 1.132 2.294 2.449 2.601 4.213.25 1.454-.101 2.753-.87 3.966l-9.817 9.819-.017-.049z" clip-rule="evenodd"/>
</svg>