<svg width="752pt" height="752pt"  fill="#12b0fb" xmlns="http://www.w3.org/2000/svg" data-name="Layer 1" viewBox="0 0 128 128" x="0px" y="0px"><title>91 Miscellaneous 16</title><path d="M26.19,117.43C30.51,122.8,37,128,44.47,128c4.25,0,7.86-2,11.74-3.46a32.39,32.39,0,0,1,11.16-2,27.55,27.55,0,0,1,10.71,2.1c1.8.76,3.58,1.57,5.41,2.27A16.25,16.25,0,0,0,89.31,128a18.27,18.27,0,0,0,10.28-3.31c8.76-6,15.25-16.54,19.85-25.77.46-.92.9-1.85,1.34-2.77.73-1.54-.42-3.49-2.46-4.61-9-4.94-14.27-12.58-15.15-23.12s3.22-18.86,11.45-24.9l1.62-1.33c.9-.74.41-2.79-1.28-4.39A34.11,34.11,0,0,0,91.66,28a30.87,30.87,0,0,0-5.06.42C79,29.72,72.9,33.34,65.74,33.34a20.84,20.84,0,0,1-6.4-1C53.34,30.42,47.38,28,41,28c-.7,0-1.41,0-2.12.09A34.76,34.76,0,0,0,18.06,38C7,48.9,5.43,65.83,8.19,80.14,10.84,94,17.36,106.49,26.19,117.43Z" fill="#12b0fb"></path><path d="M65,28a2.43,2.43,0,0,0,.43,0C86.56,24.06,88.87,7.74,89,1.78A1.75,1.75,0,0,0,87.15,0a2.35,2.35,0,0,0-.53.06C65.28,5,63.06,20.39,63,26.14A1.9,1.9,0,0,0,65,28ZM84.76,4.69c-.85,6.06-4.36,15.39-17.56,18.79C68,17.79,71.36,8.77,84.76,4.69Z"></path></svg>