<svg height='64' width='64'
  fill="#FFFFFF"  xmlns:svg="http://www.w3.org/2000/svg" xmlns="http://www.w3.org/2000/svg" 
   version="1.1" x="0px" y="0px" viewBox="-10 -8 50 50">
   <g transform="translate(0,-1020.3622)">
   <g transform="translate(-1.5,-2.5)"><path style="color:#000000;font-style:normal;font-variant:normal;font-weight:normal;font-stretch:normal;font-size:medium;line-height:normal;font-family:sans-serif;text-indent:0;text-align:start;text-decoration:none;text-decoration-line:none;text-decoration-style:solid;text-decoration-color:#000000;letter-spacing:normal;word-spacing:normal;text-transform:none;direction:ltr;block-progression:tb;writing-mode:lr-tb;baseline-shift:baseline;text-anchor:start;white-space:normal;clip-rule:nonzero;display:inline;overflow:visible;visibility:visible;opacity:1;isolation:auto;mix-blend-mode:normal;color-interpolation:sRGB;color-interpolation-filters:linearRGB;solid-color:#000000;solid-opacity:1;fill:#FFFFFF;fill-opacity:1;fill-rule:nonzero;stroke:none;stroke-width:1;stroke-linecap:butt;stroke-linejoin:miter;stroke-miterlimit:4;stroke-dasharray:none;stroke-dashoffset:0;stroke-opacity:1;color-rendering:auto;image-rendering:auto;shape-rendering:auto;text-rendering:auto;enable-background:accumulate" d="m 16.064459,2.4667969 6.230469,2.9316406 -6.296875,3.015625 -6.2968751,-3.015625 z m -6.5898436,3.875 6.0507816,2.8984375 0,7.2656246 -6.0507816,-2.892578 z m 13.0488286,0 0,7.2734371 -6.048829,2.890625 0,-7.2675778 z M 8.984381,14.488281 14.86524,17.298828 8.5332091,20.333984 2.6269591,17.099609 Z M 23,14.496094 29.023438,17.375 23,20.107422 17.132812,17.298828 Z m -7.474609,3.541015 0,0.01953 0,7.291015 -6.0507816,2.898438 0,-7.310547 z m 0.949218,0.002 6.050782,2.896485 0,7.751953 -6.050782,-3.306641 0,-7.322265 z m -13.9999996,0.0332 6.0507812,3.3125 0,7.308593 -6.0507812,-3.3125 z m 26.7851566,0.25 0,7.310546 -5.785157,2.625 0,-7.3125 z" transform="translate(1.5,1022.8622)"></path></g></g></svg>