<?xml version="1.0" encoding="UTF-8"?>
<svg width="100px" height="100px" version="1.1" viewBox="0 0 752 752" xmlns="http://www.w3.org/2000/svg">
 <g fill="#12b0fb">
  <path d="m409.72 539.62c-6.4023 3.0156-13.379 4.6289-20.457 4.7344-10.477-0.10938-20.672-3.4141-29.219-9.4727-5.7734 14.762-17.988 26.07-33.152 30.688h2.9375 111.57c-13.641-3.9961-25.078-13.363-31.684-25.949z"/>
  <path d="m288.58 463.66c0.4375-0.12109 0.85547-0.3125 1.2305-0.56641 0.71094-6.25 1.5156-12.266 2.4141-17.996h0.003906c-0.1875-3.2305 0.32813-6.4609 1.5156-9.4727 6.4844-36.418 15.531-61.992 28.035-77.523 0.82422-1.0234 2.3164-1.1797 3.3359-0.35547 1.0234 0.82422 1.1797 2.3164 0.35547 3.3359-1.2773 1.6094-2.5586 3.3633-3.7891 5.2109-9.4727 14.207-16.953 35.801-22.352 64.832h0.57031c1.0195-0.15625 2.0586-0.15625 3.0781 0 3.6953 0.80469 9.4727 3.8828 18.375 12.836 1.1367-52.047 30.973-94.008 67.91-94.008 32.582 0 59.812 32.82 66.301 76.484 3.082-6.1445 8.0625-11.129 14.207-14.207 1.5156-0.56641 3.1172-0.87109 4.7383-0.89844-3.3516-15.816-9.3242-30.957-17.668-44.801-1.2305-1.8477-2.4609-3.5977-3.7422-5.2109h0.003906c-0.41797-0.47266-0.62109-1.1016-0.55859-1.7305s0.38672-1.2031 0.89062-1.5859c0.47656-0.40234 1.1016-0.59766 1.7266-0.53516s1.1953 0.375 1.5859 0.86719c9.4727 11.934 17.332 29.789 23.207 53.988 12.645 4.7344 12.977 26.047 13.262 43.379 0 8.2422 0 16.766 1.9414 18.941 1.9414 2.1797 6.0625 1.7031 11.84-0.75781 0.66406-7.5312 0.99609-14.207 1.1836-19.844v-14.68-6.0117c0-47.359-60.902-129.24-60.902-129.24l-7.0547-61.566c-0.003906-56.496-50.961-55.973-50.961-55.973s-51.148-0.52344-51.148 55.738l-6.8164 61.805s-60.902 81.832-60.902 129.24v5.918s-0.23828 5.7305 0 14.68v4.3555c7.7188 2.9414 15.625 6.0195 18.184 5.3555zm100.45-199.19c14.207 1.3242 36.844 4.7344 37.887 11.746 0.75781 5.3984-8.0039 15.723-9.7539 17.711-3.6484 4.1211-16.34 17.617-27.801 17.617-11.461 0-24.152-13.496-27.75-17.617-1.7539-1.9883-10.512-12.312-9.8047-17.711 0.85156-7.1523 23.727-10.418 37.223-11.746z"/>
  <path d="m389.26 306.81c6.2031 0 15.723-6.2969 24.199-16.008 6.4883-7.3398 8.8555-12.738 8.668-13.969-1.1836-2.4141-16.672-6.0625-33.152-7.6719-15.961 1.6094-31.445 5.2578-32.629 7.7656 1.7031 5.2617 4.6992 10.016 8.7148 13.828 8.5234 9.7539 17.996 16.055 24.199 16.055z"/>
  <path d="m402.05 510.83c-5.4453-49.867-0.42578-60.191 3.8359-63.602 2.1289-1.6602 4.9727-2.0742 7.4844-1.0859 4.2891 2.1172 8.0312 5.1953 10.941 8.9961 5.3516 5.8242 9.0938 9.4727 12.551 7.4844 2.4609-1.4688 5.9688-9.4727 9.4727-16.812 1.8008-3.9297 3.6484-8.1445 5.6836-12.172-4.7344-44.562-30.781-78.945-62.559-78.945-34.902 0-63.27 41.438-63.27 92.348v1.8477c5.7773 6.0625 12.691 14.207 21.121 24.863h-0.007813c3.3125 4.1719 6.3516 8.5508 9.0938 13.117 7.9219 12.953 9.8867 28.688 5.3984 43.191 7.9531 5.9648 17.578 9.2773 27.516 9.4688 6.3711-0.023438 12.668-1.3945 18.469-4.0234-1.2617-2.8398-2.2578-5.7891-2.9805-8.8086-1.2305-5.2305-2.1484-10.527-2.75-15.867z"/>
  <path d="m343.42 476.64c-6.6289-8.4297-12.266-15.105-17.098-20.508l-2.4141-2.6484-2.4609-2.6523c-10.941-11.367-16.719-14.492-19.75-15.012-0.42187-0.070312-0.85547-0.070312-1.2773 0-0.93359 0.11328-1.7422 0.70312-2.1328 1.5625-0.007812 0.10938-0.007812 0.21875 0 0.33203-0.9375 2.4727-1.3086 5.1289-1.0859 7.7656v3.9766 2.2734c0.63672 4.793-0.34766 9.6602-2.7969 13.828-0.46875 0.53125-1.0117 0.99609-1.6094 1.375l-0.99609 0.61719v-0.003906c-0.63281 0.33594-1.3008 0.60547-1.9883 0.80859h-0.51953c-3.9297 0.71094-10.324-1.6094-18.422-4.7344l-2.3672-0.94531c-10.133-4.0273-21.973-8.668-30.641-8.668v-0.003906c-3.9805-0.40234-7.8867 1.2812-10.324 4.4531-6.3477 9.4727 7.8633 24.344 19.32 36.371 7.0547 7.4336 12.598 13.262 13.215 17.617 1.0898 8.0508-7.3398 11.129-14.777 13.875-3.8359 1.0156-7.418 2.8203-10.512 5.3047-1.1367 1.3242-1.0898 2.2266-0.85156 2.8906 1.043 3.6484 9.4727 11.648 54.035 24.578l-0.003906-0.003906c4.9336 1.4336 9.9492 2.5703 15.016 3.4102 9.1484 1.3906 18.504 0.17969 27.004-3.4844 8.4961-3.668 15.797-9.6484 21.062-17.258 2.0625-3.1289 3.7617-6.4805 5.0664-9.9922l0.94922-2.3203c0-0.80469 0.42578-1.7031 0.66406-2.5117v0.003906c3.4375-12.844 1.4688-26.535-5.4492-37.887-2.7109-4.3047-5.668-8.4453-8.8555-12.41z"/>
  <path d="m522.81 473.37c-3.9648 0.37891-7.8047 1.5898-11.273 3.5508l-5.1602 2.2266c-5.6836 2.1797-11.367 3.2188-15.059-1.8008-0.875-1.3164-1.4727-2.8008-1.7539-4.3555-0.65625-3.7383-1.0039-7.5234-1.043-11.32v-6.1562c0-13.781-0.47266-30.355-6.9609-36.844-0.82812-0.85547-1.8047-1.5469-2.8906-2.0391-0.59375-0.26172-1.2109-0.46484-1.8438-0.61328h-0.71094c-1.6094-0.1875-3.2422 0.039063-4.7383 0.66406-5.5898 2.2734-10.465 9.4727-14.727 17.902l-2.0352 4.1211c-0.75781 1.6094-1.4688 3.1719-2.1797 4.7344s-1.3242 2.8906-1.9414 4.3086c-4.168 9.4727-7.4336 16.719-11.223 18.941-7.0078 4.1211-13.117-2.5117-18.469-8.3828h-0.003907c-2.4141-3.1523-5.4609-5.7656-8.9492-7.6719-0.45312-0.17188-0.93359-0.26562-1.4219-0.28125-0.57422-0.015625-1.1328 0.1875-1.5625 0.56641-2.9375 2.3672-7.1523 13.215-2.082 59.387 0.54297 5.0977 1.3984 10.16 2.5547 15.156 0.64844 2.6367 1.5 5.2188 2.5586 7.7188 0.33203 0.71094 0.66406 1.4219 1.043 2.1328 0.37891 0.71094 0.61719 1.4219 0.99609 2.1328l-0.003906-0.003907c7.8828 14.648 22.723 24.234 39.316 25.395 16.594 1.1641 32.625-6.2578 42.473-19.664 3.043-4.1445 5.8438-8.4609 8.3828-12.93 22.73-40.492 23.156-52.094 21.406-55.41-0.54297-0.96484-1.5938-1.5352-2.6992-1.4648z"/>
 </g>
</svg>
