<?xml version="1.0" encoding="utf-8" standalone="no"?>
<!-- Created with Vectornator for iOS (http://vectornator.io/) -->
<!DOCTYPE svg PUBLIC "-//W3C//DTD SVG 1.1//EN"
"http://www.w3.org/Graphics/SVG/1.1/DTD/svg11.dtd">
<svg style="fill-rule:evenodd;clip-rule:evenodd;stroke-linecap:round;stroke-linejoin:round;"
xmlns:vectornator="http://vectornator.io" xmlns:xlink="http://www.w3.org/1999/xlink" xmlns="http://www.w3.org/2000/svg"
xml:space="preserve" version="1.1" viewBox="0 0 102 32">
<metadata>
<vectornator:setting key="DynamicGuides" value="1" />
<vectornator:setting key="Units" value="Points" />
<vectornator:setting key="GuidesVisible" value="1" />
<vectornator:setting key="RulersVisible" value="1" />
<vectornator:setting key="SnapToGuides" value="1" />
<vectornator:setting key="GridSpacing" value="36" />
</metadata>
<defs>
<linearGradient y1="37.4219" id="LinearGradient" x1="5.47361" y2="7.45023" x2="32.4603" gradientUnits="userSpaceOnUse"
gradientTransform="matrix(1 0 0 1 0 0)">
<stop stop-color="#ff5416" offset="0" />
<stop stop-color="#ff5115" offset="0.2535" />
<stop stop-color="#ff4712" offset="0.461" />
<stop stop-color="#ff350e" offset="0.6523" />
<stop stop-color="#ff1e08" offset="0.8327" />
<stop stop-color="#ff0000" offset="1" />
</linearGradient>
<linearGradient y1="39.3593" id="LinearGradient_2" x1="10.7084" y2="21.6452" x2="26.6583"
gradientUnits="userSpaceOnUse" gradientTransform="matrix(1 0 0 1 0 0)">
<stop stop-color="#ff5416" offset="0" />
<stop stop-color="#ff5115" offset="0.2535" />
<stop stop-color="#ff4712" offset="0.461" />
<stop stop-color="#ff350e" offset="0.6523" />
<stop stop-color="#ff1e08" offset="0.8327" />
<stop stop-color="#ff0000" offset="1" />
</linearGradient>
<linearGradient y1="-0.978746" id="LinearGradient_3" x1="99.1752" y2="-0.978746" x2="102.462"
gradientUnits="userSpaceOnUse" gradientTransform="matrix(1 0 0 1 0 0)">
<stop stop-color="#ff5416" offset="0" />
<stop stop-color="#ff5115" offset="0.2535" />
<stop stop-color="#ff4712" offset="0.461" />
<stop stop-color="#ff350e" offset="0.6523" />
<stop stop-color="#ff1e08" offset="0.8327" />
<stop stop-color="#ff0000" offset="1" />
</linearGradient>
<linearGradient y1="-0.978746" id="LinearGradient_4" x1="102.462" y2="-0.978746" x2="103.679"
gradientUnits="userSpaceOnUse" gradientTransform="matrix(1 0 0 1 0 0)">
<stop stop-color="#ff5416" offset="0" />
<stop stop-color="#ff5115" offset="0.2535" />
<stop stop-color="#ff4712" offset="0.461" />
<stop stop-color="#ff350e" offset="0.6523" />
<stop stop-color="#ff1e08" offset="0.8327" />
<stop stop-color="#ff0000" offset="1" />
</linearGradient>
</defs>
<g id="Untitled" vectornator:layerName="Untitled">
<path d="M62.922+24.9786L62.922+4.08813L66.6933+4.08813L66.6933+11.6512C67.9709+10.435+69.6164+9.76044+71.3538+9.76044C75.4318+9.76044+79.0498+12.8674+79.0498+17.5484C79.0498+22.2293+75.4318+25.3465+71.3538+25.3465C69.5244+25.3465+67.7971+24.6209+66.5094+23.3024L66.5094+24.9786L62.922+24.9786ZM75.2785+17.5484C75.2785+14.932+73.4183+13.1025+70.9859+13.1025C68.6148+13.1025+66.7853+14.84+66.6933+17.3644L66.6933+17.5484C66.6933+20.1648+68.5534+21.9942+70.9859+21.9942C73.4183+21.9942+75.2785+20.1648+75.2785+17.5484ZM80.7975+24.9786L80.7975+4.08813L84.5688+4.08813L84.5688+24.9786L80.7975+24.9786ZM89.8425+30.3954L92.0399+25.1523L86.0712+10.1284L90.1491+10.1284L93.9511+20.6247L97.8144+10.1284L101.954+10.1284L93.8591+30.4056L89.8425+30.4056L89.8425+30.3954ZM56.9329+10.1284L56.9329+12.0191C55.6247+10.5883+53.7952+9.77066+51.9147+9.77066C47.8367+9.77066+44.2187+12.8777+44.2187+17.5586C44.2187+22.2497+47.8367+25.3465+51.9147+25.3465C53.8668+25.3465+55.7166+24.4982+57.0555+22.9754L57.0555+24.9888L60.3465+24.9888L60.3465+10.1284L56.9329+10.1284ZM56.5649+17.5484C56.5649+20.1341+54.7048+21.9942+52.2724+21.9942C49.8399+21.9942+47.9798+20.1341+47.9798+17.5484C47.9798+14.9626+49.8399+13.1025+52.2724+13.1025C54.6435+13.1025+56.473+14.8706+56.5649+17.3644L56.5649+17.5484Z"
opacity="1" fill="#ffffff" />
<path d="M19.2858+0L3.14788+29.5369L0+27.3293L14.932+0L19.2858+0ZM19.5107+0L35.6487+29.5369L38.7965+27.3293L23.8646+0L19.5107+0Z"
opacity="1" fill="url(#LinearGradient)" />
<path d="M35.4238+29.7107L19.3983+17.16L3.37271+29.7107L6.64323+32L19.3983+22.0147L32.1533+32L35.4238+29.7107Z"
opacity="1" fill="url(#LinearGradient_2)" />
<path d="M99.1752-1.09225L102.462-1.09225L102.462-0.865245L99.1752-0.865245L99.1752-1.09225Z" opacity="1"
fill="url(#LinearGradient_3)" />
<path d="M102.462-1.09225L103.679-1.09225L103.679-0.865245L102.462-0.865245L102.462-1.09225Z" opacity="1"
fill="url(#LinearGradient_4)" />
</g>
</svg>
