<?xml version="1.0" encoding="UTF-8"?>
<svg x="0" y="0" width="120" height="45.72" viewBox="0 0 120 45.72" version="1.1" xmlns="http://www.w3.org/2000/svg" xmlns:xlink="http://www.w3.org/1999/xlink">
  <rect x="35.29" y="0" fill="#E2001A" width="9.07" height="45.72"></rect>
  <path fill="#E2001A" d="M110.02 45.73H120L99.15 0h-5.89 -4.07 -5.01v45.72h9.09V31.25h10.18L110.02 45.73zM93.27 23.1V8.92l6.45 14.19H93.27z"></path>
  <path fill="#E2001A" d="M67.28 0.01V0h-9.32v0H48.91v45.73h8.76 0.28 9.32v-0.01c7.4-0.14 13.36-6.21 13.36-13.69 0-3.52-1.32-6.74-3.52-9.16 2.2-2.42 3.52-5.63 3.52-9.16C80.64 6.22 74.67 0.17 67.28 0.01zM67.12 9.04c2.5 0.05 4.51 2.11 4.51 4.66 0 2.5-1.99 4.53-4.46 4.64h-0.12c-0.01 0-0.02 0-0.03 0v0h-9.06V9.04H67.12zM67.13 36.68h-9.18v-9.3h9.06c0 0 0 0 0 0 0.02 0 0.05 0 0.11 0h0.03c2.48 0.09 4.48 2.12 4.48 4.64C71.63 34.57 69.62 36.6 67.13 36.68z"></path>
  <path fill="#E2001A" d="M18.39 0.01V0H9.04v0H0v45.72h8.78v0h9.6v-0.01c7.4-0.14 13.36-6.21 13.36-13.69 0-3.52-1.34-6.74-3.52-9.16 2.18-2.42 3.52-5.63 3.52-9.16C31.75 6.23 25.78 0.17 18.39 0.01zM18.21 9.04c2.52 0.05 4.53 2.11 4.53 4.66 0 2.5-1.99 4.54-4.46 4.64h-0.11c-0.01 0-0.04 0-0.06 0v0l-9.06 0V9.04H18.21zM18.22 36.68H9.04v-9.3h9.06c0 0 0 0 0 0 0.04 0 0.06 0 0.11 0h0.03c2.5 0.09 4.5 2.12 4.5 4.64C22.74 34.57 20.73 36.6 18.22 36.68z"></path>
</svg>
