<svg version="1.1" id="Livello_1" xmlns="http://www.w3.org/2000/svg" xmlns:xlink="http://www.w3.org/1999/xlink" x="0px" y="0px" width="155px" height="23.072px" viewBox="0 0 155 23.072" enable-background="new 0 0 155 23.072" xml:space="preserve">
<path fill="#fff" d="M45,0.119h8.112c6.125,0,11.174,4.814,11.174,11c0,6.186-5.076,10.998-11.174,10.998H45V0.119z M50.72,17.273h1.282  c3.415,0,6.332-1.865,6.332-6.154c0-3.939-2.598-6.157-6.274-6.157h-1.34V17.273z"/>
<path fill="#fff" d="M69.945,18.295l-1.518,3.824h-6.068l8.46-21.999h6.244l8.287,21.999h-6.098l-1.43-3.824H69.945z M73.941,6.917h-0.058  L71.52,13.92h4.755L73.941,6.917z"/>
<polygon fill="#fff" points="85.963,0.118 91.682,0.118 102.158,13.568 102.213,13.568 102.213,0.118 107.934,0.118 107.934,22.119   102.213,22.119 91.739,8.64 91.682,8.64 91.682,22.119 85.963,22.119 "/>
<rect fill="#fff" x="110.499" y="0.12" width="5.718" height="22"/>
<polygon fill="#fff" points="124.502,4.961 124.502,8.639 132.807,8.639 132.807,13.482 124.502,13.482 124.502,17.273 133.156,17.273   133.156,22.119 118.783,22.119 118.783,0.119 133.156,0.119 133.156,4.961 "/>
<polygon fill="#fff" points="140.656,17.273 147.511,17.273 147.511,22.117 134.936,22.117 134.936,0.119 140.656,0.119 "/>
<rect fill="#fff" x="148.793" y="0.12" width="5.719" height="22"/>
<polygon fill="#CCC3BE" points="12.528,22.119 39.141,22.119 39.141,0 19.396,0 "/>
<polygon fill="#002C52" points="0,22.119 12.528,22.119 19.396,0 0,0 "/>
<polygon fill="#FFFFFF" points="23.685,13.807 19.396,17.002 26.267,22.119 "/>
<polygon fill="#E95228" points="30.588,8.663 12.528,22.119 15.088,13.869 22.087,8.663 "/>
<polygon fill="#FFFFFF" points="22.087,8.663 8.205,8.663 15.088,13.869 "/>
<polygon fill="#E95228" points="19.396,0 22.087,8.663 16.707,8.663 "/>
</svg>
