<svg xmlns="http://www.w3.org/2000/svg" width="118" height="22" viewBox="0 0 118 22">
    <g fill="#E10000" fill-rule="evenodd">
        <path d="M10.515 14.933l5.822-13.344c.326-.746.839-1.212 1.864-1.212 1.118 0 1.955.794 1.955 2.006 0 .281-.045.513-.185.839l-7.686 16.984c-.325.7-.93 1.167-1.77 1.167-.838 0-1.443-.466-1.77-1.167L1.062 3.222a1.955 1.955 0 0 1-.187-.84c0-1.211.839-2.005 1.956-2.005 1.023 0 1.537.466 1.865 1.212l5.82 13.344zM25.169 21.373c-1.305 0-2.19-.98-2.19-2.193V2.572c0-1.216.932-2.197 2.19-2.197 1.259 0 2.19.98 2.19 2.197V19.18c0 1.213-.886 2.193-2.19 2.193M62.422 21.56c-2.936 0-5.545-.934-7.406-2.38-.653-.512-.932-1.212-.932-1.82 0-.934.745-1.54 1.678-1.54.745 0 1.21.28 1.722.654 1.258.933 3.029 1.82 5.263 1.82 2.515 0 3.867-.935 3.867-2.38 0-1.586-1.305-2.194-4.564-3.08-5.73-1.539-7.826-3.497-7.826-6.86 0-3.5 3.213-5.786 8.244-5.786 1.91 0 4.052.468 5.775 1.307 1.259.608 2.143 1.355 2.143 2.287 0 .84-.467 1.634-1.676 1.634-.607 0-1.212-.28-1.91-.651-1.304-.702-2.748-1.076-4.424-1.076-2.33 0-3.915.607-3.915 2.24 0 1.588 1.398 2.1 4.752 3.079 5.03 1.447 7.639 2.801 7.639 6.577 0 3.454-2.889 5.974-8.43 5.974M106.424 3.924c-4.101 0-6.29 3.173-6.29 6.951 0 3.78 2.189 6.95 6.29 6.95 4.096 0 6.286-3.17 6.286-6.95 0-3.778-2.19-6.95-6.286-6.95m0 17.634c-6.476 0-10.668-4.804-10.668-10.684 0-5.88 4.192-10.687 10.668-10.687 6.472 0 10.665 4.808 10.665 10.687 0 5.88-4.193 10.684-10.665 10.684M85.507 13.218h2.789v3.428c-.981.742-2.532 1.18-4.054 1.18-4.1 0-6.289-3.17-6.289-6.95 0-3.779 2.19-6.95 6.29-6.95 1.22 0 2.269.278 3.142.775 1.037.587 2.27.753 3.063-.044.795-.795.766-2.147-.235-2.793-1.64-1.059-3.66-1.676-5.97-1.676-6.476 0-10.668 4.81-10.668 10.688 0 5.878 4.192 10.683 10.667 10.683 2.666 0 5.242-.815 7.002-2.185.173-.135.464-.4.733-.672.549-.55.696-.925.696-1.79v-5.079c0-1.193-.963-2.16-2.154-2.16h-5.012c-.976 0-1.817.652-1.817 1.724 0 1.076.84 1.821 1.817 1.821M39.67 8.869c-.978 0-1.814.66-1.814 1.733 0 1.074.836 1.82 1.815 1.82h9.81c1.258 0 1.678-.755 1.678-1.5 0-5.97-3.817-10.733-9.688-10.733-6.007 0-10.432 4.576-10.432 10.686 0 5.833 3.678 10.685 10.62 10.685 3.352 0 6.52-1.353 8.29-3.409.325-.369.56-.792.56-1.257 0-1.12-.84-1.82-1.818-1.82-.557 0-1.07.326-1.445.7-1.536 1.447-2.98 2.286-5.402 2.286-3.865 0-6.02-2.43-6.287-5.646-.037-.437-.088-.937-.088-1.754 0-.597.115-1.345.18-1.791.425-2.892 2.608-5.18 5.822-5.18 3.168 0 5.264 2.38 5.638 5.18h-7.438z"/>
    </g>
</svg>